<svg width="236" height="41" viewBox="0 0 236 41" fill="none" xmlns="http://www.w3.org/2000/svg">
<g opacity="0.6">
<path d="M67.3294 34.7463C64.9935 34.7463 62.9414 33.1958 62.3034 30.9488L57.1146 12.6751C57.102 12.6308 57.0615 12.6002 57.0154 12.6002C56.9554 12.6002 56.9081 12.652 56.9127 12.7119C57.2014 16.4297 57.3457 19.3229 57.3457 21.3914V31.0658C57.3457 33.0985 55.6979 34.7463 53.6652 34.7463C51.6325 34.7463 49.9847 33.0985 49.9847 31.0658V10.3255C49.9847 6.83111 52.8174 3.99838 56.3118 3.99838C59.1191 3.99838 61.5908 5.84827 62.3822 8.54176L67.4382 25.7485C67.4522 25.7962 67.496 25.829 67.5457 25.829C67.5957 25.829 67.6396 25.796 67.6534 25.748L72.601 8.57195C73.3812 5.86357 75.8595 3.99838 78.678 3.99838C82.1707 3.99838 85.002 6.82976 85.002 10.3224V30.9291C85.002 33.0373 83.293 34.7463 81.1848 34.7463C79.0766 34.7463 77.3676 33.0373 77.3676 30.9291V21.2652C77.3676 20.5641 77.3746 19.786 77.3886 18.9307C77.4164 18.0849 77.5127 16.0257 77.6775 12.753C77.6805 12.6932 77.6329 12.6423 77.5731 12.6423C77.5262 12.6423 77.485 12.6735 77.4724 12.7186L72.3597 30.9336C71.7269 33.1882 69.6712 34.7463 67.3294 34.7463Z" fill="#B5B5B5"/>
<path d="M99.4086 30.6347C99.4086 32.9055 97.5677 34.7463 95.2969 34.7463C93.0261 34.7463 91.1853 32.9055 91.1853 30.6347V15.0294C91.1853 12.7586 93.0261 10.9177 95.2969 10.9177C97.5677 10.9177 99.4086 12.7586 99.4086 15.0294V30.6347ZM90.975 4.98686C90.975 3.75302 91.3185 2.83465 92.0055 2.23174C92.6925 1.62884 93.8002 1.32739 95.3285 1.32739C96.8567 1.32739 97.9714 1.63585 98.6725 2.25278C99.3735 2.8697 99.724 3.78106 99.724 4.98686C99.724 7.39847 98.2588 8.60427 95.3285 8.60427C92.4261 8.60427 90.975 7.39847 90.975 4.98686Z" fill="#B5B5B5"/>
<path d="M124.299 34.7463C122.028 34.7463 120.188 32.9055 120.188 30.6347V21.7489C120.188 20.1645 119.956 18.9728 119.494 18.1736C119.045 17.3604 118.316 16.9537 117.306 16.9537C115.918 16.9537 114.916 17.5076 114.299 18.6152C113.682 19.7229 113.373 21.6227 113.373 24.3148V30.6347C113.373 32.9055 111.533 34.7463 109.262 34.7463C106.991 34.7463 105.15 32.9055 105.15 30.6347V14.5471C105.15 12.5426 106.775 10.9177 108.779 10.9177H109.795C110.729 10.9177 111.561 11.5082 111.87 12.3899L112.295 13.6058C112.349 13.7593 112.494 13.8621 112.657 13.8621C112.789 13.8621 112.911 13.7936 112.984 13.6839C113.674 12.6509 114.603 11.8691 115.771 11.3384C117.019 10.7775 118.449 10.4971 120.061 10.4971C122.697 10.4971 124.744 11.2612 126.203 12.7895C127.675 14.3178 128.411 16.47 128.411 19.2462V30.6347C128.411 32.9055 126.57 34.7463 124.299 34.7463Z" fill="#B5B5B5"/>
<path d="M142.271 30.6347C142.271 32.9055 140.43 34.7463 138.159 34.7463C135.888 34.7463 134.047 32.9055 134.047 30.6347V15.0294C134.047 12.7586 135.888 10.9177 138.159 10.9177C140.43 10.9177 142.271 12.7586 142.271 15.0294V30.6347ZM133.837 4.98686C133.837 3.75302 134.181 2.83465 134.868 2.23174C135.555 1.62884 136.662 1.32739 138.191 1.32739C139.719 1.32739 140.833 1.63585 141.535 2.25278C142.236 2.8697 142.586 3.78106 142.586 4.98686C142.586 7.39847 141.121 8.60427 138.191 8.60427C135.288 8.60427 133.837 7.39847 133.837 4.98686Z" fill="#B5B5B5"/>
<path d="M158.864 35.167C154.967 35.167 152.008 34.1154 149.989 32.0123C147.984 29.9091 146.982 26.8876 146.982 22.9477C146.982 18.9938 148.068 15.9302 150.242 13.757C152.415 11.5837 155.506 10.4971 159.516 10.4971C161.222 10.4971 162.866 10.7269 164.448 11.1865C166.122 11.6726 166.823 13.5535 166.178 15.1728L165.989 15.6492C165.394 17.1447 163.687 17.8159 162.145 17.3533C161.304 17.0869 160.428 16.9537 159.516 16.9537C158.184 16.9537 157.154 17.4725 156.425 18.5101C155.696 19.5476 155.331 21.0128 155.331 22.9056C155.331 26.7193 156.74 28.6262 159.558 28.6262C160.332 28.6262 161.096 28.5541 161.849 28.4098C164 27.9979 166.499 29.3811 166.499 31.571C166.499 32.5032 166.041 33.3946 165.205 33.8071C163.368 34.7137 161.255 35.167 158.864 35.167Z" fill="#B5B5B5"/>
<path d="M193.987 22.7795C193.987 26.6773 192.935 29.7198 190.832 31.9071C188.743 34.0803 185.813 35.167 182.041 35.167C178.424 35.167 175.542 34.0523 173.397 31.823C171.266 29.5936 170.2 26.5791 170.2 22.7795C170.2 18.8957 171.245 15.8811 173.334 13.7359C175.437 11.5767 178.382 10.4971 182.167 10.4971C184.509 10.4971 186.577 10.9948 188.372 11.9903C190.166 12.9858 191.547 14.416 192.515 16.2807C193.496 18.1315 193.987 20.2977 193.987 22.7795ZM178.55 22.7795C178.55 24.8265 178.823 26.3899 179.37 27.4695C179.917 28.5351 180.835 29.0679 182.125 29.0679C183.401 29.0679 184.298 28.5351 184.817 27.4695C185.35 26.3899 185.616 24.8265 185.616 22.7795C185.616 20.7464 185.35 19.2111 184.817 18.1736C184.284 17.136 183.373 16.6172 182.083 16.6172C180.821 16.6172 179.917 17.136 179.37 18.1736C178.823 19.1971 178.55 20.7324 178.55 22.7795Z" fill="#B5B5B5"/>
<path d="M206.963 30.6347C206.963 32.9055 205.122 34.7463 202.852 34.7463C200.581 34.7463 198.74 32.9055 198.74 30.6347V15.0294C198.74 12.7586 200.581 10.9177 202.852 10.9177C205.122 10.9177 206.963 12.7586 206.963 15.0294V30.6347ZM198.53 4.98686C198.53 3.75302 198.873 2.83465 199.56 2.23174C200.247 1.62884 201.355 1.32739 202.883 1.32739C204.412 1.32739 205.526 1.63585 206.227 2.25278C206.928 2.8697 207.279 3.78106 207.279 4.98686C207.279 7.39847 205.814 8.60427 202.883 8.60427C199.981 8.60427 198.53 7.39847 198.53 4.98686Z" fill="#B5B5B5"/>
<path d="M231.854 34.7463C229.583 34.7463 227.742 32.9055 227.742 30.6347V21.7489C227.742 20.1645 227.511 18.9728 227.048 18.1736C226.6 17.3604 225.871 16.9537 224.861 16.9537C223.473 16.9537 222.471 17.5076 221.854 18.6152C221.237 19.7229 220.928 21.6227 220.928 24.3148V30.6347C220.928 32.9055 219.087 34.7463 216.817 34.7463C214.546 34.7463 212.705 32.9055 212.705 30.6347V14.5471C212.705 12.5426 214.33 10.9177 216.334 10.9177H217.349C218.284 10.9177 219.116 11.5082 219.424 12.3899L219.85 13.6058C219.904 13.7593 220.049 13.8621 220.211 13.8621C220.343 13.8621 220.465 13.7936 220.539 13.6839C221.229 12.6509 222.158 11.8691 223.326 11.3384C224.574 10.7775 226.004 10.4971 227.616 10.4971C230.252 10.4971 232.299 11.2612 233.757 12.7895C235.23 14.3178 235.966 16.47 235.966 19.2462V30.6347C235.966 32.9055 234.125 34.7463 231.854 34.7463Z" fill="#B5B5B5"/>
<path fill-rule="evenodd" clip-rule="evenodd" d="M19.7415 40.407C30.6444 40.407 39.483 31.5684 39.483 20.6655C39.483 9.76252 30.6444 0.92395 19.7415 0.92395C8.83857 0.92395 0 9.76252 0 20.6655C0 31.5684 8.83857 40.407 19.7415 40.407ZM23.0529 28.3158C22.4491 28.9379 21.5754 29.3084 20.4318 29.4274L20.9121 22.9226C21.3329 23.0598 21.7263 23.2108 22.0923 23.3754C22.4674 23.5401 22.7922 23.7414 23.0666 23.9793C23.3411 24.208 23.5561 24.4779 23.7116 24.7889C23.8763 25.1 23.9586 25.4705 23.9586 25.9005C23.9586 26.8794 23.6567 27.6845 23.0529 28.3158ZM18.387 14.277C18.8079 14.1032 19.3065 13.9888 19.8829 13.9339L19.4574 19.8211C19.0549 19.6748 18.6752 19.5147 18.3184 19.3408C17.9708 19.167 17.6643 18.9657 17.399 18.737C17.1428 18.4991 16.9415 18.2247 16.7952 17.9136C16.6488 17.6026 16.5756 17.2412 16.5756 16.8295C16.5756 16.4727 16.6396 16.1296 16.7677 15.8003C16.8958 15.4709 17.0925 15.1781 17.3578 14.922C17.6323 14.6658 17.9753 14.4508 18.387 14.277ZM23.0392 21.0288C22.3988 20.7818 21.7492 20.5576 21.0905 20.3563L21.5571 13.9614C21.9779 14.0345 22.3576 14.1443 22.6961 14.2907C23.0346 14.4371 23.3319 14.5835 23.5881 14.7299C23.8534 14.8671 24.0776 14.9906 24.2605 15.1004C24.4527 15.2102 24.6128 15.2651 24.7409 15.2651C24.997 15.2651 25.2212 15.1141 25.4133 14.8122L26.0583 13.8241C25.5277 13.2935 24.9101 12.8406 24.2057 12.4655C23.5103 12.0813 22.6824 11.8251 21.7218 11.697L21.9139 8.99357H20.9258C20.7154 8.99357 20.5416 9.06676 20.4043 9.21314C20.2671 9.35952 20.1939 9.5242 20.1848 9.70718L20.0475 11.6284C19.0869 11.665 18.2315 11.8434 17.4813 12.1636C16.7403 12.4838 16.1136 12.8955 15.6012 13.3987C15.0981 13.9019 14.7138 14.4737 14.4485 15.1141C14.1832 15.7545 14.0505 16.4132 14.0505 17.0902C14.0505 17.9868 14.2015 18.7324 14.5034 19.3271C14.8053 19.9218 15.2033 20.4204 15.6973 20.8229C16.1913 21.2163 16.7494 21.5365 17.3715 21.7836C17.9936 22.0214 18.6249 22.2364 19.2653 22.4285L18.7576 29.4136C18.1629 29.3313 17.6506 29.1895 17.2206 28.9882C16.7997 28.7778 16.4338 28.5674 16.1227 28.357C15.8117 28.1374 15.5418 27.9453 15.313 27.7806C15.0935 27.6159 14.8922 27.5336 14.7092 27.5336C14.5628 27.5336 14.4302 27.5702 14.3113 27.6433C14.1923 27.7165 14.0917 27.808 14.0093 27.9178L13.1997 29.1529C13.8584 29.8299 14.6498 30.3926 15.5738 30.8408C16.4978 31.28 17.5042 31.559 18.5929 31.678L18.3733 34.7245H19.3614C19.5718 34.7245 19.7456 34.6513 19.8829 34.5049C20.0201 34.3585 20.0933 34.1939 20.1024 34.0109L20.2671 31.7191C21.2552 31.6551 22.1335 31.4492 22.902 31.1016C23.6796 30.7539 24.3337 30.3011 24.8644 29.743C25.395 29.1849 25.7975 28.5399 26.072 27.808C26.3556 27.0761 26.4974 26.2985 26.4974 25.4751C26.4974 24.6243 26.3373 23.9198 26.0171 23.3617C25.7061 22.7945 25.2944 22.3233 24.782 21.9482C24.2697 21.5731 23.6887 21.2667 23.0392 21.0288Z" fill="#B5B5B5"/>
</g>
</svg>
