<svg width="272" height="45" viewBox="0 0 272 45" fill="none" xmlns="http://www.w3.org/2000/svg">
<g opacity="0.6">
<path d="M86.1866 27.1146L86.445 35.9014H78.8643L69.0007 18.7155H68.57L68.5269 26.1239L68.7853 35.9014H62.4537L62.7983 27.7176L62.4537 8.11968H69.9914L79.898 25.3056H80.3287L80.1564 8.37811L86.5742 7.99046L86.1866 27.1146Z" fill="#B5B5B5"/>
<path d="M108.569 26.9423L97.2838 27.0285C97.4848 28.5216 98.0016 29.6272 98.8344 30.345C99.6671 31.0629 100.844 31.4218 102.366 31.4218C103.888 31.4218 105.898 30.9768 108.396 30.0866L108.913 30.4312L107.88 35.2983C105.582 36.0162 103.501 36.3752 101.634 36.3752C98.3319 36.3752 95.7332 35.4419 93.838 33.5755C91.9715 31.709 91.0383 29.139 91.0383 25.8655C91.0383 22.592 91.9428 20.022 93.7518 18.1555C95.5609 16.2604 98.016 15.3128 101.117 15.3128C103.788 15.3128 105.855 16.0306 107.32 17.4664C108.813 18.9021 109.559 20.8978 109.559 23.4534C109.559 24.2862 109.473 25.162 109.301 26.0809L108.569 26.9423ZM103.658 22.7212C103.658 20.7399 102.797 19.7492 101.074 19.7492C100.098 19.7492 99.2938 20.0794 98.6621 20.7399C98.0303 21.3716 97.5996 22.2905 97.3699 23.4965L103.572 23.3242L103.658 22.7212Z" fill="#B5B5B5"/>
<path d="M120.395 18.2417L122.548 21.989L124.788 17.9833L125.908 15.7866H131.809L126.21 25.6932L131.981 35.686L124.788 36.2029L123.754 33.4462L121.601 29.5697L119.189 33.7477L118.198 35.9014H112.254L117.854 25.8224L112.211 15.9158L119.49 15.6143L120.395 18.2417Z" fill="#B5B5B5"/>
<path d="M144.802 30.905C145.663 30.905 146.582 30.6896 147.559 30.2589L148.032 30.7757L147.386 34.6953C145.951 35.4994 144.457 36.0019 142.907 36.2029C140.811 36.088 139.217 35.5424 138.126 34.5661C137.035 33.5611 136.489 32.1971 136.489 30.4742L136.704 26.5547L136.661 19.9646H133.991L133.775 19.62L134.077 15.9158H136.618V12.47L142.864 10.6179L143.338 11.0486L143.165 15.9158H147.903L148.119 16.3034L147.817 19.9646H143.036L142.778 28.6652C142.778 29.4979 142.921 30.0866 143.208 30.4312C143.524 30.747 144.055 30.905 144.802 30.905Z" fill="#B5B5B5"/>
<path d="M163.968 8.0766C166.954 8.0766 169.251 8.82319 170.859 10.3164C172.496 11.8095 173.314 13.9344 173.314 16.6911C173.314 18.8447 172.826 20.7399 171.85 22.3766C170.873 23.9847 169.495 25.2338 167.715 26.1239C165.935 27.0141 163.867 27.4592 161.512 27.4592H159.014L159.273 35.9014H152.252L152.64 27.6745L152.252 8.11968L163.968 8.0766ZM162.762 22.4197C163.853 22.0464 164.657 21.4578 165.174 20.6537C165.719 19.821 165.992 18.7298 165.992 17.3802C165.992 15.9445 165.633 14.882 164.915 14.1929C164.226 13.5037 163.135 13.1304 161.642 13.073L159.316 13.2022L159.1 22.2474L162.762 22.4197Z" fill="#B5B5B5"/>
<path d="M184.01 26.9854L184.311 35.9014H177.506L177.85 27.6315L177.592 6.13835L184.354 5.66455L184.01 26.9854Z" fill="#B5B5B5"/>
<path d="M198.847 15.3128C201.231 15.3128 203.083 15.8296 204.404 16.8634C205.725 17.8684 206.385 19.3185 206.385 21.2137C206.385 21.8741 206.356 22.6351 206.299 23.4965C206.242 24.358 206.198 25.1763 206.17 25.9516C206.026 28.0191 205.954 29.4405 205.954 30.2158C205.954 30.6178 206.012 30.905 206.127 31.0773C206.27 31.2495 206.5 31.3357 206.816 31.3357C207.074 31.3357 207.39 31.2783 207.763 31.1634L208.237 31.5511L207.634 35.1261C206.687 35.7865 205.524 36.1742 204.145 36.289C203.284 36.2029 202.552 35.9014 201.949 35.3845C201.346 34.8676 200.915 34.1354 200.656 33.1878H200.355C198.919 34.7097 197.455 35.7578 195.962 36.3321C193.837 36.3034 192.157 35.7291 190.922 34.6092C189.716 33.4893 189.113 31.9674 189.113 30.0435C189.113 27.0859 190.664 25.3486 193.765 24.8318L200.14 23.755V22.5059C200.14 21.6157 199.939 20.984 199.537 20.6107C199.163 20.2087 198.546 20.0077 197.684 20.0077C196.823 20.0077 195.89 20.1943 194.885 20.5676C193.908 20.9409 192.774 21.5295 191.482 22.3336L191.051 22.0321L190.276 17.5956C191.568 16.8777 192.961 16.3178 194.454 15.9158C195.947 15.5138 197.412 15.3128 198.847 15.3128ZM196.435 27.6745C196.005 27.7607 195.674 27.933 195.445 28.1914C195.244 28.4498 195.143 28.8375 195.143 29.3544C195.143 30.0435 195.315 30.5747 195.66 30.948C196.033 31.3213 196.536 31.508 197.168 31.508C198.086 31.508 199.063 31.0198 200.097 30.0435L200.14 26.9423L196.435 27.6745Z" fill="#B5B5B5"/>
<path d="M224.833 23.8842C224.891 21.9028 224.087 20.9122 222.421 20.9122C221.416 20.9122 220.325 21.3429 219.148 22.2043V26.9854L219.449 35.9014H212.644L212.945 27.6745L212.687 16.1742L219.191 15.6573V18.6293H219.449C221 17.1649 222.723 16.1168 224.618 15.4851C226.771 15.4851 228.408 15.9876 229.528 16.9926C230.677 17.9689 231.237 19.3759 231.208 21.2137L231.036 26.9854L231.294 35.9014H224.489L224.833 23.8842Z" fill="#B5B5B5"/>
<path d="M253.225 26.9423L241.94 27.0285C242.141 28.5216 242.658 29.6272 243.49 30.345C244.323 31.0629 245.5 31.4218 247.022 31.4218C248.544 31.4218 250.554 30.9768 253.052 30.0866L253.569 30.4312L252.535 35.2983C250.238 36.0162 248.156 36.3752 246.29 36.3752C242.988 36.3752 240.389 35.4419 238.494 33.5755C236.627 31.709 235.694 29.139 235.694 25.8655C235.694 22.592 236.599 20.022 238.408 18.1555C240.217 16.2604 242.672 15.3128 245.773 15.3128C248.444 15.3128 250.511 16.0306 251.976 17.4664C253.469 18.9021 254.215 20.8978 254.215 23.4534C254.215 24.2862 254.129 25.162 253.957 26.0809L253.225 26.9423ZM248.314 22.7212C248.314 20.7399 247.453 19.7492 245.73 19.7492C244.754 19.7492 243.95 20.0794 243.318 20.7399C242.686 21.3716 242.256 22.2905 242.026 23.4965L248.228 23.3242L248.314 22.7212Z" fill="#B5B5B5"/>
<path d="M267.807 30.905C268.669 30.905 269.588 30.6896 270.564 30.2589L271.038 30.7757L270.392 34.6953C268.956 35.4994 267.463 36.0019 265.912 36.2029C263.816 36.088 262.222 35.5424 261.131 34.5661C260.04 33.5611 259.494 32.1971 259.494 30.4742L259.71 26.5547L259.667 19.9646H256.996L256.781 19.62L257.082 15.9158H259.624V12.47L265.869 10.6179L266.343 11.0486L266.171 15.9158H270.909L271.124 16.3034L270.822 19.9646H266.041L265.783 28.6652C265.783 29.4979 265.926 30.0866 266.214 30.4312C266.53 30.747 267.061 30.905 267.807 30.905Z" fill="#B5B5B5"/>
<path d="M4.35866 20.2725C6.04509 13.4926 11.4417 2.32568 24.5958 2.32568C37.75 2.32568 43.9898 13.4926 44.833 20.2725M44.833 20.2725L38.5089 16.6831M44.833 20.2725L48.6275 14.2902" stroke="#B5B5B5" stroke-width="3"/>
<path d="M45.0381 25.0584C43.3973 31.8383 38.1466 43.0052 25.3479 43.0052C12.5493 43.0052 6.4781 31.8383 5.65768 25.0584M5.65768 25.0584L11.8109 28.6478M5.65768 25.0584L1.96576 31.0407" stroke="#B5B5B5" stroke-width="3"/>
</g>
</svg>
