<svg width="227" height="44" viewBox="0 0 227 44" fill="none" xmlns="http://www.w3.org/2000/svg">
<g opacity="0.6">
<path d="M62.0853 1.42139V22.2254C62.0853 25.4127 61.2095 27.8678 59.4579 29.5907C57.735 31.3136 55.3373 32.1751 52.2648 32.1751C48.9338 32.1751 46.2921 31.2418 44.3394 29.3754C42.3868 27.4802 41.4105 24.7666 41.4105 21.2347H48.6898C48.6898 24.0775 49.7666 25.4989 51.9202 25.4989C53.7867 25.4989 54.7199 24.4077 54.7199 22.2254V1.42139H62.0853Z" fill="#B5B5B5"/>
<path d="M77.3686 7.53767C79.2063 7.53767 80.7856 7.95403 82.1065 8.78677C83.4274 9.6195 84.4037 10.7537 85.0354 12.1895V7.83917H92.3577V31.8736H85.0354V27.5233C84.4037 28.959 83.4274 30.0932 82.1065 30.926C80.7856 31.7587 79.2063 32.1751 77.3686 32.1751C75.3872 32.1751 73.6069 31.6869 72.0276 30.7106C70.477 29.7056 69.2422 28.2698 68.3234 26.4034C67.4332 24.5369 66.9881 22.3546 66.9881 19.8564C66.9881 17.3295 67.4332 15.1471 68.3234 13.3094C69.2422 11.4429 70.477 10.0215 72.0276 9.0452C73.6069 8.04018 75.3872 7.53767 77.3686 7.53767ZM79.7375 13.9985C78.1582 13.9985 76.8804 14.5154 75.9041 15.5491C74.9565 16.5829 74.4827 18.0186 74.4827 19.8564C74.4827 21.6941 74.9565 23.1299 75.9041 24.1636C76.8804 25.1973 78.1582 25.7142 79.7375 25.7142C81.2881 25.7142 82.5516 25.183 83.5279 24.1205C84.5329 23.0581 85.0354 21.6367 85.0354 19.8564C85.0354 18.0473 84.5329 16.6259 83.5279 15.5922C82.5516 14.5298 81.2881 13.9985 79.7375 13.9985Z" fill="#B5B5B5"/>
<path d="M109.575 7.53767C112.676 7.53767 115.275 8.39912 117.371 10.122C119.468 11.8162 120.788 14.1565 121.334 17.1428H113.538C113.308 16.1091 112.834 15.3051 112.117 14.7308C111.399 14.1565 110.494 13.8693 109.403 13.8693C108.111 13.8693 107.048 14.3862 106.216 15.4199C105.383 16.4249 104.967 17.9038 104.967 19.8564C104.967 21.809 105.383 23.3022 106.216 24.3359C107.048 25.3409 108.111 25.8434 109.403 25.8434C110.494 25.8434 111.399 25.5563 112.117 24.982C112.834 24.4077 113.308 23.6037 113.538 22.5699H121.334C120.788 25.5563 119.468 27.9109 117.371 29.6338C115.275 31.328 112.676 32.1751 109.575 32.1751C107.221 32.1751 105.124 31.6869 103.287 30.7106C101.478 29.7056 100.056 28.2698 99.0225 26.4034C97.9888 24.5369 97.4719 22.3546 97.4719 19.8564C97.4719 17.3295 97.9744 15.1471 98.9795 13.3094C100.013 11.4429 101.449 10.0215 103.287 9.0452C105.124 8.04018 107.221 7.53767 109.575 7.53767Z" fill="#B5B5B5"/>
<path d="M141.029 31.8736L133.836 21.6654V31.8736H126.471V0H133.836V17.4874L141.029 7.83917H149.687L139.995 19.8564L149.902 31.8736H141.029Z" fill="#B5B5B5"/>
<path d="M168.873 7.53767C170.854 7.53767 172.62 8.04018 174.171 9.0452C175.75 10.0215 176.985 11.4429 177.875 13.3094C178.794 15.1471 179.254 17.3295 179.254 19.8564C179.254 22.3546 178.794 24.5369 177.875 26.4034C176.985 28.2698 175.75 29.7056 174.171 30.7106C172.62 31.6869 170.854 32.1751 168.873 32.1751C167.035 32.1751 165.456 31.7587 164.135 30.926C162.814 30.0932 161.852 28.959 161.249 27.5233V43.3308H153.884V7.83917H161.249V12.1895C161.852 10.7537 162.814 9.6195 164.135 8.78677C165.456 7.95403 167.035 7.53767 168.873 7.53767ZM166.504 13.9985C164.954 13.9985 163.676 14.5298 162.671 15.5922C161.694 16.6259 161.206 18.0473 161.206 19.8564C161.206 21.6367 161.694 23.0581 162.671 24.1205C163.676 25.183 164.954 25.7142 166.504 25.7142C168.083 25.7142 169.347 25.1973 170.295 24.1636C171.271 23.1299 171.759 21.6941 171.759 19.8564C171.759 18.0186 171.271 16.5829 170.295 15.5491C169.347 14.5154 168.083 13.9985 166.504 13.9985Z" fill="#B5B5B5"/>
<path d="M195.61 7.53767C197.993 7.53767 200.118 8.04018 201.984 9.0452C203.88 10.0215 205.358 11.4429 206.421 13.3094C207.512 15.1758 208.058 17.3582 208.058 19.8564C208.058 22.3546 207.512 24.5369 206.421 26.4034C205.358 28.2698 203.88 29.7056 201.984 30.7106C200.118 31.6869 197.993 32.1751 195.61 32.1751C193.226 32.1751 191.087 31.6869 189.192 30.7106C187.297 29.7056 185.804 28.2698 184.712 26.4034C183.65 24.5369 183.119 22.3546 183.119 19.8564C183.119 17.3582 183.65 15.1758 184.712 13.3094C185.804 11.4429 187.297 10.0215 189.192 9.0452C191.087 8.04018 193.226 7.53767 195.61 7.53767ZM195.61 13.9124C194.203 13.9124 193.011 14.4292 192.035 15.463C191.087 16.468 190.613 17.9325 190.613 19.8564C190.613 21.7803 191.087 23.2447 192.035 24.2498C193.011 25.2548 194.203 25.7573 195.61 25.7573C197.017 25.7573 198.194 25.2548 199.142 24.2498C200.089 23.2447 200.563 21.7803 200.563 19.8564C200.563 17.9325 200.089 16.468 199.142 15.463C198.194 14.4292 197.017 13.9124 195.61 13.9124Z" fill="#B5B5B5"/>
<path d="M226.78 25.5419V31.8736H223.463C220.649 31.8736 218.453 31.1844 216.873 29.8061C215.323 28.3991 214.547 26.0875 214.547 22.8714V14.0416H211.317V7.83917H214.547V1.93826H221.913V7.83917H226.737V14.0416H221.913V23.0007C221.913 23.9482 222.099 24.6087 222.473 24.982C222.875 25.3553 223.535 25.5419 224.454 25.5419H226.78Z" fill="#B5B5B5"/>
<path fill-rule="evenodd" clip-rule="evenodd" d="M17.5688 17.9824C22.7197 19.5484 28.5202 15.4731 30.5246 8.87994C30.6978 8.31021 30.837 7.74032 30.9434 7.17354C32.9801 10.5527 33.6307 14.7491 32.3927 18.8212C30.075 26.4445 22.0163 30.7456 14.393 28.428C6.76976 26.1103 2.46866 18.0516 4.78628 10.4284C6.0243 6.35615 8.90053 3.23192 12.4735 1.55816C12.2464 2.08832 12.0449 2.63931 11.8716 3.2091C9.86721 9.80222 12.4179 16.4165 17.5688 17.9824Z" fill="#B5B5B5"/>
</g>
</svg>
