<svg width="146" height="145" viewBox="0 0 146 145" fill="none" xmlns="http://www.w3.org/2000/svg">
<circle opacity="0.3" cx="73" cy="72.5" r="72.5" fill="url(#paint0_linear_55_66)"/>
<g clip-path="url(#clip0_55_66)">
<path d="M95.4457 79.4516C93.2191 78.1818 90.707 77.8038 88.2165 77.7093C86.1454 77.6483 83.0367 76.2839 83.0367 72.502C83.0367 69.6827 85.3126 67.4068 88.248 67.2946C90.7385 67.2001 93.2506 66.8221 95.4753 65.5405C98.4957 63.7963 100.7 60.9243 101.604 57.5557C102.507 54.187 102.037 50.5973 100.295 47.5756C98.5379 44.5519 95.6533 42.3486 92.274 41.4492C88.8946 40.5497 85.2964 41.0275 82.2689 42.7778C80.2649 43.9274 78.601 45.5871 77.4463 47.5883C76.2917 49.5894 75.6875 51.8606 75.6952 54.1709C75.6952 56.7224 76.6087 59.0613 77.7664 61.2565C78.7429 63.0815 79.2134 66.4953 75.9 68.4129C73.4095 69.8382 70.3028 68.9484 68.7652 66.4658C67.4639 64.3631 65.8928 62.4042 63.6681 61.1344C57.3741 57.4942 49.314 59.6559 45.7053 65.9322C43.9646 68.955 43.4953 72.5452 44.4005 75.9139C45.3057 79.2825 47.5113 82.1539 50.5326 83.8971C52.5328 85.0455 54.7989 85.6497 57.1053 85.6497C59.4117 85.6497 61.6778 85.0455 63.678 83.8971C65.8928 82.6233 67.4639 80.6664 68.7652 78.5657C69.8303 76.8509 72.5275 74.6577 75.9 76.6147C78.3944 78.0302 79.1622 81.1802 77.7664 83.7829C76.6186 85.9347 75.6952 88.3051 75.6952 90.8566C75.6952 98.1174 81.5838 103.992 88.8406 104.002C92.3265 104 95.6691 102.615 98.134 100.15C100.599 97.6852 101.984 94.3425 101.986 90.8566C101.998 88.5479 101.399 86.2772 100.25 84.2746C99.1007 82.272 97.4427 80.6088 95.4438 79.4536L95.4457 79.4516Z" fill="#42DDA7"/>
</g>
<defs>
<linearGradient id="paint0_linear_55_66" x1="0.5" y1="145" x2="145.5" y2="145" gradientUnits="userSpaceOnUse">
<stop stop-color="#3FE8AB"/>
<stop offset="1" stop-color="#78CDCD"/>
</linearGradient>
<clipPath id="clip0_55_66">
<rect width="63" height="63" fill="white" transform="translate(41.5 41)"/>
</clipPath>
</defs>
</svg>
