<svg width="932" height="676" viewBox="0 0 932 676" fill="none" xmlns="http://www.w3.org/2000/svg">
<rect x="219" y="226" width="713" height="450" rx="20" fill="#2A2C2B"/>
<path d="M613.753 418.898C611.717 418.898 609.918 418.547 608.355 417.847C606.802 417.146 605.585 416.18 604.705 414.949C603.824 413.718 603.388 412.316 603.398 410.744C603.388 409.513 603.639 408.382 604.151 407.349C604.671 406.308 605.377 405.441 606.267 404.75C607.157 404.049 608.152 403.604 609.25 403.415V403.244C607.801 402.894 606.641 402.117 605.77 400.915C604.899 399.712 604.468 398.33 604.477 396.767C604.468 395.28 604.861 393.955 605.656 392.79C606.461 391.616 607.564 390.692 608.966 390.02C610.367 389.348 611.963 389.011 613.753 389.011C615.524 389.011 617.105 389.352 618.497 390.034C619.899 390.706 621.002 391.63 621.807 392.804C622.612 393.969 623.019 395.29 623.028 396.767C623.019 398.33 622.574 399.712 621.693 400.915C620.813 402.117 619.667 402.894 618.256 403.244V403.415C619.345 403.604 620.325 404.049 621.196 404.75C622.077 405.441 622.777 406.308 623.298 407.349C623.829 408.382 624.098 409.513 624.108 410.744C624.098 412.316 623.653 413.718 622.773 414.949C621.892 416.18 620.67 417.146 619.108 417.847C617.555 418.547 615.77 418.898 613.753 418.898ZM613.753 415.304C614.955 415.304 615.997 415.105 616.878 414.707C617.759 414.3 618.44 413.737 618.923 413.017C619.406 412.288 619.652 411.436 619.662 410.46C619.652 409.447 619.387 408.552 618.866 407.776C618.355 406.999 617.659 406.388 616.778 405.943C615.898 405.498 614.889 405.276 613.753 405.276C612.607 405.276 611.589 405.498 610.699 405.943C609.809 406.388 609.108 406.999 608.597 407.776C608.085 408.552 607.834 409.447 607.844 410.46C607.834 411.436 608.066 412.288 608.54 413.017C609.023 413.737 609.709 414.3 610.599 414.707C611.49 415.105 612.541 415.304 613.753 415.304ZM613.753 401.767C614.719 401.767 615.576 401.573 616.324 401.185C617.072 400.796 617.659 400.257 618.085 399.565C618.521 398.874 618.743 398.064 618.753 397.136C618.743 396.227 618.526 395.432 618.099 394.75C617.683 394.068 617.1 393.543 616.352 393.173C615.604 392.795 614.738 392.605 613.753 392.605C612.749 392.605 611.868 392.795 611.111 393.173C610.363 393.543 609.78 394.068 609.364 394.75C608.947 395.432 608.743 396.227 608.753 397.136C608.743 398.064 608.952 398.874 609.378 399.565C609.804 400.257 610.391 400.796 611.139 401.185C611.897 401.573 612.768 401.767 613.753 401.767ZM631.192 418.77C630.416 418.77 629.748 418.495 629.19 417.946C628.631 417.387 628.352 416.715 628.352 415.929C628.352 415.152 628.631 414.49 629.19 413.94C629.748 413.382 630.416 413.102 631.192 413.102C631.969 413.102 632.637 413.382 633.195 413.94C633.754 414.49 634.033 415.152 634.033 415.929C634.033 416.45 633.901 416.928 633.636 417.364C633.38 417.79 633.039 418.131 632.613 418.386C632.187 418.642 631.713 418.77 631.192 418.77ZM639.903 418.5L652.602 393.386V393.173H637.915V389.409H657.148V393.301L644.491 418.5H639.903ZM659.133 412.818V409.267L671.704 389.409H674.502V394.636H672.727L663.735 408.869V409.097H680.965V412.818H659.133ZM672.925 418.5V411.739L672.954 410.119V389.409H677.116V418.5H672.925ZM696.072 418.898C694.774 418.879 693.496 418.642 692.237 418.188C690.987 417.733 689.85 416.975 688.827 415.915C687.805 414.854 686.986 413.429 686.37 411.639C685.764 409.849 685.461 407.615 685.461 404.935C685.461 402.397 685.712 400.143 686.214 398.173C686.725 396.204 687.459 394.542 688.415 393.188C689.372 391.824 690.527 390.787 691.881 390.077C693.236 389.366 694.755 389.011 696.441 389.011C698.174 389.011 699.713 389.352 701.058 390.034C702.402 390.716 703.491 391.658 704.325 392.861C705.167 394.063 705.702 395.432 705.93 396.966H701.597C701.304 395.754 700.721 394.764 699.85 393.997C698.979 393.23 697.843 392.847 696.441 392.847C694.31 392.847 692.648 393.775 691.455 395.631C690.272 397.487 689.675 400.067 689.665 403.372H689.879C690.38 402.548 690.996 401.848 691.725 401.27C692.464 400.683 693.288 400.233 694.197 399.92C695.115 399.598 696.081 399.438 697.094 399.438C698.78 399.438 700.305 399.849 701.668 400.673C703.041 401.488 704.135 402.615 704.95 404.054C705.764 405.493 706.171 407.141 706.171 408.997C706.171 410.853 705.75 412.534 704.907 414.04C704.074 415.545 702.899 416.739 701.384 417.619C699.869 418.491 698.098 418.917 696.072 418.898ZM696.058 415.205C697.175 415.205 698.174 414.93 699.055 414.381C699.935 413.831 700.631 413.093 701.143 412.165C701.654 411.237 701.91 410.2 701.91 409.054C701.91 407.937 701.659 406.919 701.157 406C700.665 405.081 699.983 404.352 699.112 403.812C698.25 403.273 697.265 403.003 696.157 403.003C695.314 403.003 694.533 403.164 693.813 403.486C693.103 403.808 692.478 404.253 691.938 404.821C691.398 405.389 690.972 406.043 690.66 406.781C690.357 407.51 690.205 408.282 690.205 409.097C690.205 410.186 690.456 411.194 690.958 412.122C691.469 413.05 692.165 413.798 693.046 414.366C693.936 414.925 694.94 415.205 696.058 415.205ZM730.908 422.136V385.773H733.238V422.136H730.908ZM738.195 397.051C738.044 395.706 737.419 394.665 736.32 393.926C735.222 393.178 733.839 392.804 732.173 392.804C730.979 392.804 729.947 392.993 729.076 393.372C728.205 393.741 727.528 394.253 727.045 394.906C726.571 395.55 726.335 396.284 726.335 397.108C726.335 397.799 726.496 398.396 726.817 398.898C727.149 399.4 727.58 399.821 728.11 400.162C728.65 400.493 729.228 400.773 729.843 401C730.459 401.218 731.05 401.398 731.619 401.54L734.46 402.278C735.388 402.506 736.339 402.813 737.315 403.202C738.29 403.59 739.194 404.101 740.028 404.736C740.861 405.37 741.533 406.156 742.045 407.094C742.566 408.031 742.826 409.153 742.826 410.46C742.826 412.108 742.4 413.571 741.548 414.849C740.705 416.128 739.478 417.136 737.869 417.875C736.268 418.614 734.332 418.983 732.059 418.983C729.881 418.983 727.996 418.637 726.406 417.946C724.815 417.255 723.569 416.275 722.67 415.006C721.77 413.727 721.273 412.212 721.178 410.46H725.582C725.667 411.511 726.008 412.387 726.604 413.088C727.21 413.779 727.982 414.295 728.92 414.636C729.867 414.968 730.904 415.134 732.031 415.134C733.271 415.134 734.374 414.939 735.34 414.551C736.316 414.153 737.083 413.604 737.641 412.903C738.2 412.193 738.479 411.365 738.479 410.418C738.479 409.556 738.233 408.85 737.741 408.301C737.258 407.752 736.6 407.297 735.766 406.938C734.942 406.578 734.01 406.26 732.968 405.986L729.531 405.048C727.201 404.414 725.354 403.481 723.991 402.25C722.637 401.019 721.96 399.39 721.96 397.364C721.96 395.687 722.414 394.224 723.323 392.974C724.232 391.724 725.463 390.754 727.016 390.062C728.569 389.362 730.321 389.011 732.272 389.011C734.242 389.011 735.979 389.357 737.485 390.048C739 390.74 740.193 391.691 741.065 392.903C741.936 394.106 742.39 395.489 742.428 397.051H738.195Z" fill="#F7F7F7"/>
<rect x="726" y="269" width="172" height="47" rx="10" fill="url(#paint0_linear_54_10)"/>
<path d="M772.468 289.642C772.417 289.726 772.363 289.789 772.307 289.831C772.251 289.868 772.181 289.887 772.097 289.887C772.008 289.887 771.908 289.85 771.796 289.775C771.689 289.7 771.553 289.619 771.39 289.53C771.231 289.437 771.042 289.353 770.823 289.278C770.604 289.199 770.342 289.159 770.039 289.159C769.759 289.159 769.512 289.194 769.297 289.264C769.087 289.334 768.91 289.432 768.765 289.558C768.62 289.684 768.511 289.833 768.436 290.006C768.366 290.174 768.331 290.358 768.331 290.559C768.331 290.816 768.399 291.03 768.534 291.203C768.669 291.371 768.847 291.516 769.066 291.637C769.29 291.758 769.544 291.866 769.829 291.959C770.114 292.048 770.403 292.143 770.697 292.246C770.996 292.349 771.287 292.465 771.572 292.596C771.857 292.727 772.109 292.892 772.328 293.093C772.552 293.294 772.732 293.539 772.867 293.828C773.002 294.117 773.07 294.47 773.07 294.885C773.07 295.333 772.993 295.753 772.839 296.145C772.685 296.537 772.461 296.88 772.167 297.174C771.878 297.463 771.518 297.692 771.089 297.86C770.664 298.028 770.179 298.112 769.633 298.112C769.311 298.112 768.996 298.079 768.688 298.014C768.385 297.953 768.093 297.867 767.813 297.755C767.538 297.638 767.279 297.498 767.036 297.335C766.793 297.172 766.576 296.99 766.385 296.789L766.861 296.005C766.903 295.94 766.957 295.888 767.022 295.851C767.087 295.814 767.16 295.795 767.239 295.795C767.346 295.795 767.465 295.846 767.596 295.949C767.727 296.047 767.883 296.157 768.065 296.278C768.252 296.395 768.476 296.504 768.737 296.607C768.998 296.705 769.311 296.754 769.675 296.754C770.268 296.754 770.725 296.609 771.047 296.32C771.374 296.031 771.537 295.632 771.537 295.123C771.537 294.838 771.469 294.607 771.334 294.43C771.199 294.248 771.019 294.096 770.795 293.975C770.576 293.854 770.324 293.751 770.039 293.667C769.754 293.583 769.465 293.494 769.171 293.401C768.877 293.303 768.588 293.191 768.303 293.065C768.018 292.934 767.764 292.766 767.54 292.561C767.321 292.351 767.143 292.094 767.008 291.791C766.873 291.483 766.805 291.1 766.805 290.643C766.805 290.279 766.875 289.927 767.015 289.586C767.16 289.245 767.367 288.944 767.638 288.683C767.913 288.417 768.252 288.205 768.653 288.046C769.054 287.887 769.512 287.808 770.025 287.808C770.604 287.808 771.133 287.899 771.614 288.081C772.099 288.263 772.517 288.522 772.867 288.858L772.468 289.642ZM782.533 296.677L782.526 298H776.24V287.92H782.526V289.243H777.885V292.281H781.595V293.562H777.885V296.677H782.533ZM788.842 293.058C789.206 293.058 789.526 293.011 789.801 292.918C790.081 292.825 790.312 292.694 790.494 292.526C790.681 292.353 790.821 292.146 790.914 291.903C791.007 291.66 791.054 291.39 791.054 291.091C791.054 290.797 791.007 290.533 790.914 290.3C790.825 290.067 790.69 289.868 790.508 289.705C790.326 289.542 790.095 289.418 789.815 289.334C789.54 289.245 789.215 289.201 788.842 289.201H787.344V293.058H788.842ZM788.842 287.92C789.5 287.92 790.069 287.997 790.55 288.151C791.035 288.305 791.434 288.522 791.747 288.802C792.064 289.077 792.3 289.411 792.454 289.803C792.608 290.19 792.685 290.62 792.685 291.091C792.685 291.572 792.603 292.013 792.44 292.414C792.277 292.811 792.034 293.154 791.712 293.443C791.39 293.728 790.989 293.952 790.508 294.115C790.032 294.274 789.477 294.353 788.842 294.353H787.344V298H785.706V287.92H788.842ZM802.588 289.285H799.445V298H797.814V289.285H794.664V287.92H802.588V289.285ZM811.684 296.677L811.677 298H805.391V287.92H811.677V289.243H807.036V292.281H810.746V293.562H807.036V296.677H811.684ZM825.581 287.92V298H824.139V291.091C824.139 290.979 824.141 290.858 824.146 290.727C824.155 290.592 824.167 290.456 824.181 290.321L820.94 296.306C820.814 296.553 820.62 296.677 820.359 296.677H820.128C819.862 296.677 819.668 296.553 819.547 296.306L816.257 290.307C816.271 290.442 816.28 290.578 816.285 290.713C816.294 290.848 816.299 290.974 816.299 291.091V298H814.857V287.92H816.082C816.227 287.92 816.339 287.934 816.418 287.962C816.497 287.985 816.57 288.062 816.635 288.193L819.869 294.052C819.939 294.187 820.004 294.327 820.065 294.472C820.13 294.612 820.189 294.757 820.24 294.906C820.296 294.757 820.354 294.61 820.415 294.465C820.48 294.316 820.548 294.173 820.618 294.038L823.803 288.193C823.868 288.062 823.941 287.985 824.02 287.962C824.099 287.934 824.211 287.92 824.356 287.92H825.581ZM833.036 296.705C833.405 296.705 833.715 296.663 833.967 296.579C834.224 296.49 834.432 296.371 834.59 296.222C834.754 296.073 834.87 295.898 834.94 295.697C835.015 295.492 835.052 295.272 835.052 295.039C835.052 294.563 834.889 294.19 834.562 293.919C834.24 293.644 833.729 293.506 833.029 293.506H831.006V296.705H833.036ZM831.006 289.201V292.351H832.644C833.344 292.351 833.867 292.216 834.212 291.945C834.558 291.674 834.73 291.285 834.73 290.776C834.73 290.221 834.567 289.819 834.24 289.572C833.918 289.325 833.412 289.201 832.721 289.201H831.006ZM832.721 287.92C833.365 287.92 833.916 287.983 834.373 288.109C834.831 288.23 835.206 288.405 835.5 288.634C835.794 288.863 836.009 289.143 836.144 289.474C836.284 289.801 836.354 290.169 836.354 290.58C836.354 290.818 836.317 291.049 836.242 291.273C836.172 291.492 836.06 291.7 835.906 291.896C835.757 292.087 835.568 292.26 835.339 292.414C835.111 292.568 834.84 292.696 834.527 292.799C835.955 293.102 836.669 293.861 836.669 295.074C836.669 295.503 836.588 295.898 836.424 296.257C836.266 296.612 836.032 296.92 835.724 297.181C835.421 297.438 835.045 297.638 834.597 297.783C834.149 297.928 833.638 298 833.064 298H829.368V287.92H832.721ZM846.208 296.677L846.201 298H839.915V287.92H846.201V289.243H841.56V292.281H845.27V293.562H841.56V296.677H846.208ZM852.307 292.75C852.681 292.75 853.007 292.706 853.287 292.617C853.567 292.524 853.801 292.395 853.987 292.232C854.174 292.069 854.314 291.875 854.407 291.651C854.501 291.422 854.547 291.17 854.547 290.895C854.547 290.344 854.365 289.924 854.001 289.635C853.637 289.346 853.087 289.201 852.349 289.201H851.019V292.75H852.307ZM857.053 298H855.59C855.301 298 855.091 297.888 854.96 297.664L852.608 294.269C852.529 294.152 852.443 294.068 852.349 294.017C852.256 293.966 852.116 293.94 851.929 293.94H851.019V298H849.381V287.92H852.349C853.012 287.92 853.581 287.988 854.057 288.123C854.538 288.258 854.932 288.452 855.24 288.704C855.548 288.951 855.775 289.25 855.919 289.6C856.069 289.95 856.143 290.34 856.143 290.769C856.143 291.119 856.09 291.446 855.982 291.749C855.88 292.052 855.728 292.328 855.527 292.575C855.331 292.822 855.089 293.037 854.799 293.219C854.51 293.401 854.181 293.543 853.812 293.646C854.013 293.767 854.186 293.938 854.33 294.157L857.053 298Z" fill="#111111"/>
<path d="M256 558L348.168 608.139C367.388 618.595 391.28 614.405 405.796 598.033L440.07 559.375C455.538 541.928 481.458 538.459 500.97 551.225L520.528 564.021C542.691 578.521 572.451 571.855 586.31 549.288L631.2 476.195C645.056 453.634 674.804 446.965 696.966 461.451L733.843 485.556C749.18 495.581 768.946 495.779 784.481 486.063L896.5 416" stroke="url(#paint1_linear_54_10)" stroke-width="6"/>
<g filter="url(#filter0_d_54_10)">
<circle cx="665.5" cy="456" r="15.5" fill="#1B1B1B"/>
<circle cx="665.5" cy="456" r="14.5" stroke="#71D0C9" stroke-width="2"/>
</g>
<g filter="url(#filter1_d_54_10)">
<rect x="130" y="144" width="451" height="164" rx="20" fill="#3B3D3C"/>
</g>
<path d="M322.701 215.378C320.848 215.378 319.192 215.058 317.735 214.42C316.286 213.781 315.139 212.895 314.294 211.761C313.457 210.619 313.007 209.296 312.944 207.794H317.182C317.236 208.613 317.51 209.323 318.005 209.926C318.508 210.52 319.165 210.979 319.975 211.303C320.785 211.626 321.684 211.788 322.674 211.788C323.762 211.788 324.725 211.599 325.562 211.222C326.407 210.844 327.068 210.317 327.545 209.643C328.022 208.959 328.26 208.172 328.26 207.281C328.26 206.355 328.022 205.54 327.545 204.839C327.077 204.128 326.389 203.57 325.481 203.165C324.581 202.761 323.492 202.558 322.215 202.558H319.88V199.158H322.215C323.241 199.158 324.14 198.973 324.914 198.604C325.696 198.236 326.308 197.723 326.749 197.066C327.19 196.4 327.41 195.622 327.41 194.732C327.41 193.877 327.217 193.135 326.83 192.505C326.452 191.866 325.912 191.367 325.211 191.007C324.518 190.647 323.699 190.467 322.755 190.467C321.855 190.467 321.014 190.634 320.231 190.967C319.458 191.29 318.828 191.758 318.342 192.37C317.856 192.973 317.595 193.697 317.559 194.543H313.525C313.57 193.049 314.01 191.736 314.847 190.602C315.693 189.469 316.808 188.583 318.194 187.944C319.579 187.305 321.117 186.986 322.809 186.986C324.581 186.986 326.11 187.332 327.397 188.025C328.692 188.709 329.691 189.622 330.392 190.764C331.103 191.907 331.454 193.157 331.445 194.516C331.454 196.063 331.022 197.376 330.15 198.456C329.286 199.536 328.134 200.26 326.695 200.629V200.844C328.53 201.123 329.952 201.852 330.959 203.031C331.976 204.209 332.48 205.671 332.471 207.416C332.48 208.937 332.057 210.299 331.202 211.505C330.357 212.71 329.2 213.66 327.734 214.352C326.268 215.036 324.59 215.378 322.701 215.378ZM342.058 211.222L341.856 212.692C341.721 213.772 341.492 214.897 341.168 216.066C340.853 217.245 340.524 218.338 340.183 219.345C339.85 220.353 339.575 221.153 339.359 221.747H336.499C336.616 221.189 336.778 220.434 336.984 219.48C337.191 218.536 337.394 217.478 337.592 216.309C337.79 215.139 337.938 213.947 338.037 212.733L338.172 211.222H342.058ZM347.928 215L359.992 191.142V190.94H346.039V187.364H364.31V191.061L352.287 215H347.928ZM377.754 215.378C376.063 215.378 374.543 215.054 373.193 214.406C371.853 213.75 370.782 212.85 369.981 211.707C369.181 210.565 368.753 209.26 368.699 207.794H372.748C372.847 208.982 373.373 209.958 374.327 210.722C375.28 211.487 376.423 211.869 377.754 211.869C378.816 211.869 379.756 211.626 380.574 211.141C381.402 210.646 382.05 209.967 382.518 209.103C382.994 208.239 383.233 207.254 383.233 206.148C383.233 205.023 382.99 204.02 382.504 203.138C382.018 202.257 381.348 201.564 380.494 201.06C379.648 200.557 378.676 200.3 377.579 200.291C376.742 200.291 375.901 200.435 375.055 200.723C374.21 201.011 373.526 201.389 373.004 201.857L369.185 201.29L370.737 187.364H385.932V190.94H374.205L373.328 198.672H373.49C374.03 198.15 374.745 197.714 375.636 197.363C376.535 197.012 377.498 196.837 378.523 196.837C380.206 196.837 381.704 197.237 383.017 198.038C384.339 198.838 385.378 199.931 386.134 201.317C386.899 202.693 387.277 204.277 387.268 206.067C387.277 207.857 386.872 209.454 386.053 210.857C385.244 212.261 384.119 213.367 382.68 214.177C381.249 214.978 379.607 215.378 377.754 215.378ZM401.818 215.459C399.686 215.45 397.864 214.888 396.353 213.772C394.841 212.656 393.685 211.033 392.885 208.901C392.084 206.768 391.684 204.2 391.684 201.195C391.684 198.2 392.084 195.64 392.885 193.517C393.694 191.394 394.855 189.775 396.366 188.659C397.887 187.544 399.704 186.986 401.818 186.986C403.932 186.986 405.745 187.548 407.256 188.673C408.767 189.788 409.924 191.407 410.724 193.531C411.534 195.645 411.939 198.2 411.939 201.195C411.939 204.209 411.538 206.782 410.738 208.914C409.937 211.037 408.781 212.661 407.27 213.786C405.758 214.901 403.941 215.459 401.818 215.459ZM401.818 211.856C403.689 211.856 405.151 210.943 406.204 209.116C407.265 207.29 407.796 204.65 407.796 201.195C407.796 198.901 407.553 196.963 407.067 195.379C406.59 193.787 405.902 192.581 405.003 191.763C404.112 190.935 403.05 190.521 401.818 190.521C399.956 190.521 398.494 191.439 397.432 193.274C396.371 195.109 395.835 197.75 395.826 201.195C395.826 203.498 396.065 205.446 396.542 207.038C397.027 208.622 397.716 209.823 398.606 210.641C399.497 211.451 400.567 211.856 401.818 211.856ZM435.311 218.455V183.909H437.524V218.455H435.311ZM442.233 194.624C442.089 193.346 441.496 192.357 440.452 191.655C439.409 190.944 438.095 190.589 436.512 190.589C435.378 190.589 434.398 190.769 433.57 191.129C432.742 191.479 432.099 191.965 431.64 192.586C431.191 193.198 430.966 193.895 430.966 194.678C430.966 195.334 431.119 195.901 431.424 196.378C431.739 196.855 432.149 197.255 432.652 197.579C433.165 197.894 433.714 198.159 434.299 198.375C434.883 198.582 435.446 198.753 435.986 198.888L438.684 199.589C439.566 199.805 440.47 200.098 441.397 200.467C442.323 200.835 443.182 201.321 443.974 201.924C444.766 202.527 445.405 203.273 445.89 204.164C446.385 205.055 446.633 206.121 446.633 207.362C446.633 208.928 446.228 210.317 445.418 211.532C444.617 212.746 443.452 213.705 441.923 214.406C440.403 215.108 438.563 215.459 436.404 215.459C434.335 215.459 432.544 215.13 431.033 214.474C429.522 213.817 428.339 212.886 427.484 211.68C426.629 210.466 426.157 209.027 426.067 207.362H430.25C430.331 208.361 430.655 209.193 431.222 209.859C431.798 210.515 432.531 211.006 433.422 211.33C434.321 211.644 435.306 211.802 436.377 211.802C437.555 211.802 438.603 211.617 439.521 211.249C440.448 210.871 441.176 210.349 441.707 209.683C442.238 209.009 442.503 208.221 442.503 207.322C442.503 206.503 442.269 205.833 441.802 205.311C441.343 204.789 440.718 204.357 439.926 204.016C439.143 203.674 438.257 203.372 437.267 203.112L434.002 202.221C431.789 201.618 430.035 200.732 428.739 199.562C427.453 198.393 426.809 196.846 426.809 194.92C426.809 193.328 427.241 191.938 428.105 190.751C428.968 189.563 430.138 188.641 431.613 187.984C433.089 187.319 434.753 186.986 436.606 186.986C438.477 186.986 440.128 187.314 441.559 187.971C442.998 188.628 444.132 189.532 444.959 190.683C445.787 191.826 446.219 193.139 446.255 194.624H442.233Z" fill="#F7F7F7"/>
<path d="M321.627 245.237V246.975H314.059V252.211H320.186V253.883H314.059V259.262H321.627V261H311.914V245.237H321.627ZM333.013 261H332.144C331.954 261 331.8 260.971 331.682 260.912C331.565 260.853 331.488 260.729 331.451 260.538L331.231 259.504C330.938 259.768 330.652 260.006 330.373 260.219C330.095 260.424 329.801 260.6 329.493 260.747C329.185 260.886 328.855 260.993 328.503 261.066C328.159 261.139 327.774 261.176 327.348 261.176C326.916 261.176 326.509 261.117 326.127 261C325.753 260.875 325.427 260.692 325.148 260.45C324.87 260.208 324.646 259.904 324.477 259.537C324.316 259.163 324.235 258.723 324.235 258.217C324.235 257.777 324.356 257.355 324.598 256.952C324.84 256.541 325.229 256.178 325.764 255.863C326.307 255.548 327.015 255.291 327.887 255.093C328.76 254.888 329.827 254.77 331.088 254.741V253.872C331.088 253.007 330.901 252.354 330.527 251.914C330.161 251.467 329.614 251.243 328.888 251.243C328.412 251.243 328.008 251.305 327.678 251.43C327.356 251.547 327.073 251.683 326.831 251.837C326.597 251.984 326.391 252.119 326.215 252.244C326.047 252.361 325.878 252.42 325.709 252.42C325.577 252.42 325.46 252.387 325.357 252.321C325.262 252.248 325.185 252.16 325.126 252.057L324.774 251.43C325.39 250.836 326.054 250.392 326.765 250.099C327.477 249.806 328.265 249.659 329.13 249.659C329.754 249.659 330.307 249.762 330.791 249.967C331.275 250.172 331.682 250.458 332.012 250.825C332.342 251.192 332.592 251.635 332.76 252.156C332.929 252.677 333.013 253.249 333.013 253.872V261ZM327.931 259.801C328.276 259.801 328.591 259.768 328.877 259.702C329.163 259.629 329.431 259.53 329.68 259.405C329.937 259.273 330.179 259.115 330.406 258.932C330.641 258.749 330.868 258.54 331.088 258.305V255.984C330.186 256.013 329.42 256.087 328.789 256.204C328.159 256.314 327.645 256.461 327.249 256.644C326.853 256.827 326.564 257.044 326.38 257.293C326.204 257.542 326.116 257.821 326.116 258.129C326.116 258.422 326.164 258.675 326.259 258.888C326.355 259.101 326.483 259.277 326.644 259.416C326.806 259.548 326.996 259.647 327.216 259.713C327.436 259.772 327.675 259.801 327.931 259.801ZM336.42 261V249.857H337.542C337.754 249.857 337.901 249.897 337.982 249.978C338.062 250.059 338.117 250.198 338.147 250.396L338.279 252.134C338.66 251.357 339.129 250.752 339.687 250.319C340.251 249.879 340.911 249.659 341.667 249.659C341.975 249.659 342.253 249.696 342.503 249.769C342.752 249.835 342.983 249.93 343.196 250.055L342.943 251.518C342.891 251.701 342.778 251.793 342.602 251.793C342.499 251.793 342.341 251.76 342.129 251.694C341.916 251.621 341.619 251.584 341.238 251.584C340.556 251.584 339.984 251.782 339.522 252.178C339.067 252.574 338.686 253.15 338.378 253.905V261H336.42ZM345.733 261V249.857H346.899C347.177 249.857 347.353 249.993 347.427 250.264L347.581 251.474C348.065 250.939 348.604 250.506 349.198 250.176C349.799 249.846 350.492 249.681 351.277 249.681C351.885 249.681 352.421 249.784 352.883 249.989C353.352 250.187 353.741 250.473 354.049 250.847C354.364 251.214 354.602 251.657 354.764 252.178C354.925 252.699 355.006 253.274 355.006 253.905V261H353.048V253.905C353.048 253.062 352.853 252.409 352.465 251.947C352.083 251.478 351.497 251.243 350.705 251.243C350.125 251.243 349.583 251.382 349.077 251.661C348.578 251.94 348.116 252.317 347.691 252.794V261H345.733ZM360.575 249.857V261H358.617V249.857H360.575ZM361.015 246.359C361.015 246.55 360.975 246.729 360.894 246.898C360.821 247.059 360.718 247.206 360.586 247.338C360.462 247.463 360.315 247.562 360.146 247.635C359.978 247.708 359.798 247.745 359.607 247.745C359.417 247.745 359.237 247.708 359.068 247.635C358.907 247.562 358.76 247.463 358.628 247.338C358.504 247.206 358.405 247.059 358.331 246.898C358.258 246.729 358.221 246.55 358.221 246.359C358.221 246.168 358.258 245.989 358.331 245.82C358.405 245.644 358.504 245.494 358.628 245.369C358.76 245.237 358.907 245.134 359.068 245.061C359.237 244.988 359.417 244.951 359.607 244.951C359.798 244.951 359.978 244.988 360.146 245.061C360.315 245.134 360.462 245.237 360.586 245.369C360.718 245.494 360.821 245.644 360.894 245.82C360.975 245.989 361.015 246.168 361.015 246.359ZM364.466 261V249.857H365.632C365.911 249.857 366.087 249.993 366.16 250.264L366.314 251.474C366.798 250.939 367.337 250.506 367.931 250.176C368.532 249.846 369.225 249.681 370.01 249.681C370.619 249.681 371.154 249.784 371.616 249.989C372.085 250.187 372.474 250.473 372.782 250.847C373.097 251.214 373.336 251.657 373.497 252.178C373.658 252.699 373.739 253.274 373.739 253.905V261H371.781V253.905C371.781 253.062 371.587 252.409 371.198 251.947C370.817 251.478 370.23 251.243 369.438 251.243C368.859 251.243 368.316 251.382 367.81 251.661C367.311 251.94 366.849 252.317 366.424 252.794V261H364.466ZM380.882 249.67C381.366 249.67 381.817 249.725 382.235 249.835C382.66 249.938 383.045 250.092 383.39 250.297H386.415V251.023C386.415 251.265 386.261 251.419 385.953 251.485L384.688 251.661C384.937 252.138 385.062 252.669 385.062 253.256C385.062 253.799 384.955 254.294 384.743 254.741C384.537 255.181 384.248 255.559 383.874 255.874C383.507 256.189 383.067 256.431 382.554 256.6C382.048 256.769 381.49 256.853 380.882 256.853C380.361 256.853 379.87 256.791 379.408 256.666C379.173 256.813 378.993 256.97 378.869 257.139C378.751 257.308 378.693 257.473 378.693 257.634C378.693 257.898 378.799 258.1 379.012 258.239C379.224 258.371 379.507 258.466 379.859 258.525C380.211 258.584 380.61 258.62 381.058 258.635C381.505 258.65 381.96 258.675 382.422 258.712C382.891 258.741 383.349 258.796 383.797 258.877C384.244 258.958 384.644 259.09 384.996 259.273C385.348 259.456 385.63 259.709 385.843 260.032C386.055 260.355 386.162 260.773 386.162 261.286C386.162 261.763 386.041 262.225 385.799 262.672C385.564 263.119 385.223 263.515 384.776 263.86C384.328 264.212 383.782 264.491 383.137 264.696C382.491 264.909 381.762 265.015 380.948 265.015C380.134 265.015 379.419 264.934 378.803 264.773C378.194 264.612 377.688 264.395 377.285 264.124C376.881 263.853 376.577 263.537 376.372 263.178C376.174 262.826 376.075 262.456 376.075 262.067C376.075 261.517 376.247 261.051 376.592 260.67C376.944 260.281 377.424 259.973 378.033 259.746C377.717 259.599 377.464 259.405 377.274 259.163C377.09 258.914 376.999 258.584 376.999 258.173C376.999 258.012 377.028 257.847 377.087 257.678C377.145 257.502 377.233 257.33 377.351 257.161C377.475 256.992 377.626 256.831 377.802 256.677C377.978 256.523 378.183 256.387 378.418 256.27C377.868 255.962 377.435 255.555 377.12 255.049C376.812 254.536 376.658 253.938 376.658 253.256C376.658 252.713 376.76 252.222 376.966 251.782C377.178 251.335 377.472 250.957 377.846 250.649C378.22 250.334 378.663 250.092 379.177 249.923C379.697 249.754 380.266 249.67 380.882 249.67ZM384.358 261.605C384.358 261.326 384.281 261.103 384.127 260.934C383.973 260.765 383.764 260.637 383.5 260.549C383.236 260.454 382.931 260.384 382.587 260.34C382.242 260.296 381.879 260.267 381.498 260.252C381.116 260.23 380.728 260.208 380.332 260.186C379.936 260.164 379.558 260.124 379.199 260.065C378.781 260.263 378.44 260.505 378.176 260.791C377.919 261.077 377.791 261.418 377.791 261.814C377.791 262.063 377.853 262.294 377.978 262.507C378.11 262.727 378.308 262.914 378.572 263.068C378.836 263.229 379.166 263.354 379.562 263.442C379.965 263.537 380.438 263.585 380.981 263.585C381.509 263.585 381.982 263.537 382.4 263.442C382.818 263.347 383.17 263.211 383.456 263.035C383.749 262.859 383.973 262.65 384.127 262.408C384.281 262.166 384.358 261.898 384.358 261.605ZM380.882 255.555C381.278 255.555 381.626 255.5 381.927 255.39C382.235 255.28 382.491 255.126 382.697 254.928C382.902 254.73 383.056 254.495 383.159 254.224C383.261 253.945 383.313 253.641 383.313 253.311C383.313 252.629 383.104 252.086 382.686 251.683C382.275 251.28 381.674 251.078 380.882 251.078C380.097 251.078 379.496 251.28 379.078 251.683C378.667 252.086 378.462 252.629 378.462 253.311C378.462 253.641 378.513 253.945 378.616 254.224C378.726 254.495 378.883 254.73 379.089 254.928C379.294 255.126 379.547 255.28 379.848 255.39C380.148 255.5 380.493 255.555 380.882 255.555ZM398.011 249.681C398.825 249.681 399.558 249.817 400.211 250.088C400.871 250.359 401.428 250.744 401.883 251.243C402.345 251.742 402.697 252.347 402.939 253.058C403.188 253.762 403.313 254.55 403.313 255.423C403.313 256.303 403.188 257.095 402.939 257.799C402.697 258.503 402.345 259.104 401.883 259.603C401.428 260.102 400.871 260.487 400.211 260.758C399.558 261.022 398.825 261.154 398.011 261.154C397.197 261.154 396.46 261.022 395.8 260.758C395.147 260.487 394.59 260.102 394.128 259.603C393.666 259.104 393.31 258.503 393.061 257.799C392.812 257.095 392.687 256.303 392.687 255.423C392.687 254.55 392.812 253.762 393.061 253.058C393.31 252.347 393.666 251.742 394.128 251.243C394.59 250.744 395.147 250.359 395.8 250.088C396.46 249.817 397.197 249.681 398.011 249.681ZM398.011 259.625C399.111 259.625 399.932 259.258 400.475 258.525C401.018 257.784 401.289 256.754 401.289 255.434C401.289 254.107 401.018 253.073 400.475 252.332C399.932 251.591 399.111 251.221 398.011 251.221C397.454 251.221 396.97 251.316 396.559 251.507C396.148 251.698 395.804 251.973 395.525 252.332C395.254 252.691 395.048 253.135 394.909 253.663C394.777 254.184 394.711 254.774 394.711 255.434C394.711 256.094 394.777 256.684 394.909 257.205C395.048 257.726 395.254 258.166 395.525 258.525C395.804 258.877 396.148 259.148 396.559 259.339C396.97 259.53 397.454 259.625 398.011 259.625ZM406.606 261V251.529L405.374 251.386C405.22 251.349 405.091 251.294 404.989 251.221C404.893 251.14 404.846 251.027 404.846 250.88V250.077H406.606V248.999C406.606 248.361 406.694 247.796 406.87 247.305C407.053 246.806 407.31 246.388 407.64 246.051C407.977 245.706 408.38 245.446 408.85 245.27C409.319 245.094 409.847 245.006 410.434 245.006C410.932 245.006 411.394 245.079 411.82 245.226L411.776 246.205C411.768 246.352 411.706 246.44 411.589 246.469C411.471 246.498 411.306 246.513 411.094 246.513H410.753C410.415 246.513 410.107 246.557 409.829 246.645C409.557 246.733 409.323 246.876 409.125 247.074C408.927 247.272 408.773 247.532 408.663 247.855C408.56 248.178 408.509 248.577 408.509 249.054V250.077H411.732V251.496H408.575V261H406.606ZM424.949 255.555C424.949 256.435 424.839 257.223 424.619 257.92C424.406 258.617 424.087 259.207 423.662 259.691C423.244 260.168 422.727 260.534 422.111 260.791C421.495 261.048 420.787 261.176 419.988 261.176C419.276 261.176 418.536 261.073 417.766 260.868C417.78 260.655 417.799 260.446 417.821 260.241C417.843 260.028 417.865 259.819 417.887 259.614C417.901 259.489 417.945 259.39 418.019 259.317C418.099 259.236 418.217 259.196 418.371 259.196C418.503 259.196 418.679 259.229 418.899 259.295C419.119 259.361 419.412 259.394 419.779 259.394C420.263 259.394 420.692 259.321 421.066 259.174C421.447 259.027 421.766 258.8 422.023 258.492C422.287 258.184 422.485 257.792 422.617 257.315C422.756 256.831 422.826 256.259 422.826 255.599V245.237H424.949V255.555ZM437.111 261H436.242C436.051 261 435.897 260.971 435.78 260.912C435.663 260.853 435.586 260.729 435.549 260.538L435.329 259.504C435.036 259.768 434.75 260.006 434.471 260.219C434.192 260.424 433.899 260.6 433.591 260.747C433.283 260.886 432.953 260.993 432.601 261.066C432.256 261.139 431.871 261.176 431.446 261.176C431.013 261.176 430.606 261.117 430.225 261C429.851 260.875 429.525 260.692 429.246 260.45C428.967 260.208 428.744 259.904 428.575 259.537C428.414 259.163 428.333 258.723 428.333 258.217C428.333 257.777 428.454 257.355 428.696 256.952C428.938 256.541 429.327 256.178 429.862 255.863C430.405 255.548 431.112 255.291 431.985 255.093C432.858 254.888 433.925 254.77 435.186 254.741V253.872C435.186 253.007 434.999 252.354 434.625 251.914C434.258 251.467 433.712 251.243 432.986 251.243C432.509 251.243 432.106 251.305 431.776 251.43C431.453 251.547 431.171 251.683 430.929 251.837C430.694 251.984 430.489 252.119 430.313 252.244C430.144 252.361 429.976 252.42 429.807 252.42C429.675 252.42 429.558 252.387 429.455 252.321C429.36 252.248 429.283 252.16 429.224 252.057L428.872 251.43C429.488 250.836 430.152 250.392 430.863 250.099C431.574 249.806 432.363 249.659 433.228 249.659C433.851 249.659 434.405 249.762 434.889 249.967C435.373 250.172 435.78 250.458 436.11 250.825C436.44 251.192 436.689 251.635 436.858 252.156C437.027 252.677 437.111 253.249 437.111 253.872V261ZM432.029 259.801C432.374 259.801 432.689 259.768 432.975 259.702C433.261 259.629 433.529 259.53 433.778 259.405C434.035 259.273 434.277 259.115 434.504 258.932C434.739 258.749 434.966 258.54 435.186 258.305V255.984C434.284 256.013 433.518 256.087 432.887 256.204C432.256 256.314 431.743 256.461 431.347 256.644C430.951 256.827 430.661 257.044 430.478 257.293C430.302 257.542 430.214 257.821 430.214 258.129C430.214 258.422 430.262 258.675 430.357 258.888C430.452 259.101 430.581 259.277 430.742 259.416C430.903 259.548 431.094 259.647 431.314 259.713C431.534 259.772 431.772 259.801 432.029 259.801ZM440.517 261V249.857H441.683C441.962 249.857 442.138 249.993 442.211 250.264L442.365 251.474C442.849 250.939 443.388 250.506 443.982 250.176C444.584 249.846 445.277 249.681 446.061 249.681C446.67 249.681 447.205 249.784 447.667 249.989C448.137 250.187 448.525 250.473 448.833 250.847C449.149 251.214 449.387 251.657 449.548 252.178C449.71 252.699 449.79 253.274 449.79 253.905V261H447.832V253.905C447.832 253.062 447.638 252.409 447.249 251.947C446.868 251.478 446.281 251.243 445.489 251.243C444.91 251.243 444.367 251.382 443.861 251.661C443.363 251.94 442.901 252.317 442.475 252.794V261H440.517ZM454.876 249.857V256.963C454.876 257.806 455.07 258.459 455.459 258.921C455.848 259.383 456.434 259.614 457.219 259.614C457.791 259.614 458.33 259.478 458.836 259.207C459.342 258.936 459.808 258.558 460.233 258.074V249.857H462.191V261H461.025C460.746 261 460.57 260.864 460.497 260.593L460.343 259.394C459.859 259.929 459.316 260.362 458.715 260.692C458.114 261.015 457.424 261.176 456.647 261.176C456.038 261.176 455.499 261.077 455.03 260.879C454.568 260.674 454.179 260.388 453.864 260.021C453.549 259.654 453.31 259.211 453.149 258.69C452.995 258.169 452.918 257.594 452.918 256.963V249.857H454.876ZM474.031 261H473.162C472.971 261 472.817 260.971 472.7 260.912C472.582 260.853 472.505 260.729 472.469 260.538L472.249 259.504C471.955 259.768 471.669 260.006 471.391 260.219C471.112 260.424 470.819 260.6 470.511 260.747C470.203 260.886 469.873 260.993 469.521 261.066C469.176 261.139 468.791 261.176 468.366 261.176C467.933 261.176 467.526 261.117 467.145 261C466.771 260.875 466.444 260.692 466.166 260.45C465.887 260.208 465.663 259.904 465.495 259.537C465.333 259.163 465.253 258.723 465.253 258.217C465.253 257.777 465.374 257.355 465.616 256.952C465.858 256.541 466.246 256.178 466.782 255.863C467.324 255.548 468.032 255.291 468.905 255.093C469.777 254.888 470.844 254.77 472.106 254.741V253.872C472.106 253.007 471.919 252.354 471.545 251.914C471.178 251.467 470.632 251.243 469.906 251.243C469.429 251.243 469.026 251.305 468.696 251.43C468.373 251.547 468.091 251.683 467.849 251.837C467.614 251.984 467.409 252.119 467.233 252.244C467.064 252.361 466.895 252.42 466.727 252.42C466.595 252.42 466.477 252.387 466.375 252.321C466.279 252.248 466.202 252.16 466.144 252.057L465.792 251.43C466.408 250.836 467.071 250.392 467.783 250.099C468.494 249.806 469.282 249.659 470.148 249.659C470.771 249.659 471.325 249.762 471.809 249.967C472.293 250.172 472.7 250.458 473.03 250.825C473.36 251.192 473.609 251.635 473.778 252.156C473.946 252.677 474.031 253.249 474.031 253.872V261ZM468.949 259.801C469.293 259.801 469.609 259.768 469.895 259.702C470.181 259.629 470.448 259.53 470.698 259.405C470.954 259.273 471.196 259.115 471.424 258.932C471.658 258.749 471.886 258.54 472.106 258.305V255.984C471.204 256.013 470.437 256.087 469.807 256.204C469.176 256.314 468.663 256.461 468.267 256.644C467.871 256.827 467.581 257.044 467.398 257.293C467.222 257.542 467.134 257.821 467.134 258.129C467.134 258.422 467.181 258.675 467.277 258.888C467.372 259.101 467.5 259.277 467.662 259.416C467.823 259.548 468.014 259.647 468.234 259.713C468.454 259.772 468.692 259.801 468.949 259.801ZM477.437 261V249.857H478.559C478.772 249.857 478.918 249.897 478.999 249.978C479.08 250.059 479.135 250.198 479.164 250.396L479.296 252.134C479.677 251.357 480.147 250.752 480.704 250.319C481.269 249.879 481.929 249.659 482.684 249.659C482.992 249.659 483.271 249.696 483.52 249.769C483.769 249.835 484 249.93 484.213 250.055L483.96 251.518C483.909 251.701 483.795 251.793 483.619 251.793C483.516 251.793 483.359 251.76 483.146 251.694C482.933 251.621 482.636 251.584 482.255 251.584C481.573 251.584 481.001 251.782 480.539 252.178C480.084 252.574 479.703 253.15 479.395 253.905V261H477.437ZM490.017 264.289C489.951 264.436 489.867 264.553 489.764 264.641C489.669 264.729 489.518 264.773 489.313 264.773H487.861L489.896 260.351L485.298 249.857H486.992C487.161 249.857 487.293 249.901 487.388 249.989C487.483 250.07 487.553 250.161 487.597 250.264L490.578 257.282C490.644 257.443 490.699 257.605 490.743 257.766C490.794 257.927 490.838 258.092 490.875 258.261C490.926 258.092 490.978 257.927 491.029 257.766C491.08 257.605 491.139 257.44 491.205 257.271L494.098 250.264C494.142 250.147 494.215 250.051 494.318 249.978C494.428 249.897 494.545 249.857 494.67 249.857H496.232L490.017 264.289Z" fill="#969696"/>
<circle opacity="0.3" cx="230.5" cy="223.5" r="45.5" fill="url(#paint2_linear_54_10)"/>
<path d="M229.459 241.455V206.909H231.672V241.455H229.459ZM236.382 217.624C236.238 216.346 235.644 215.357 234.601 214.655C233.557 213.944 232.244 213.589 230.66 213.589C229.527 213.589 228.546 213.769 227.718 214.129C226.891 214.479 226.248 214.965 225.789 215.586C225.339 216.198 225.114 216.895 225.114 217.678C225.114 218.334 225.267 218.901 225.573 219.378C225.888 219.855 226.297 220.255 226.801 220.579C227.314 220.894 227.862 221.159 228.447 221.375C229.032 221.582 229.594 221.753 230.134 221.888L232.833 222.589C233.714 222.805 234.619 223.098 235.545 223.467C236.472 223.835 237.331 224.321 238.123 224.924C238.914 225.527 239.553 226.273 240.039 227.164C240.534 228.055 240.781 229.121 240.781 230.362C240.781 231.928 240.376 233.317 239.566 234.532C238.766 235.746 237.601 236.705 236.071 237.406C234.551 238.108 232.711 238.459 230.552 238.459C228.483 238.459 226.693 238.13 225.182 237.474C223.67 236.817 222.487 235.886 221.633 234.68C220.778 233.466 220.306 232.027 220.216 230.362H224.399C224.48 231.361 224.804 232.193 225.37 232.859C225.946 233.515 226.679 234.006 227.57 234.33C228.47 234.644 229.455 234.802 230.525 234.802C231.704 234.802 232.752 234.617 233.669 234.249C234.596 233.871 235.325 233.349 235.856 232.683C236.386 232.009 236.652 231.221 236.652 230.322C236.652 229.503 236.418 228.833 235.95 228.311C235.491 227.789 234.866 227.357 234.074 227.016C233.292 226.674 232.406 226.372 231.416 226.112L228.15 225.221C225.937 224.618 224.183 223.732 222.888 222.562C221.601 221.393 220.958 219.846 220.958 217.92C220.958 216.328 221.39 214.938 222.253 213.751C223.117 212.563 224.286 211.641 225.762 210.984C227.237 210.319 228.901 209.986 230.755 209.986C232.626 209.986 234.277 210.314 235.707 210.971C237.147 211.628 238.28 212.532 239.108 213.683C239.935 214.826 240.367 216.139 240.403 217.624H236.382Z" fill="#F7F7F7"/>
<defs>
<filter id="filter0_d_54_10" x="616" y="406.5" width="99" height="99" filterUnits="userSpaceOnUse" color-interpolation-filters="sRGB">
<feFlood flood-opacity="0" result="BackgroundImageFix"/>
<feColorMatrix in="SourceAlpha" type="matrix" values="0 0 0 0 0 0 0 0 0 0 0 0 0 0 0 0 0 0 127 0" result="hardAlpha"/>
<feOffset/>
<feGaussianBlur stdDeviation="17"/>
<feComposite in2="hardAlpha" operator="out"/>
<feColorMatrix type="matrix" values="0 0 0 0 1 0 0 0 0 1 0 0 0 0 1 0 0 0 0.15 0"/>
<feBlend mode="normal" in2="BackgroundImageFix" result="effect1_dropShadow_54_10"/>
<feBlend mode="normal" in="SourceGraphic" in2="effect1_dropShadow_54_10" result="shape"/>
</filter>
<filter id="filter1_d_54_10" x="-14" y="0" width="739" height="452" filterUnits="userSpaceOnUse" color-interpolation-filters="sRGB">
<feFlood flood-opacity="0" result="BackgroundImageFix"/>
<feColorMatrix in="SourceAlpha" type="matrix" values="0 0 0 0 0 0 0 0 0 0 0 0 0 0 0 0 0 0 127 0" result="hardAlpha"/>
<feOffset/>
<feGaussianBlur stdDeviation="72"/>
<feComposite in2="hardAlpha" operator="out"/>
<feColorMatrix type="matrix" values="0 0 0 0 0 0 0 0 0 0 0 0 0 0 0 0 0 0 0.05 0"/>
<feBlend mode="normal" in2="BackgroundImageFix" result="effect1_dropShadow_54_10"/>
<feBlend mode="normal" in="SourceGraphic" in2="effect1_dropShadow_54_10" result="shape"/>
</filter>
<linearGradient id="paint0_linear_54_10" x1="726" y1="316" x2="898" y2="316" gradientUnits="userSpaceOnUse">
<stop stop-color="#3FE8AB"/>
<stop offset="1" stop-color="#78CDCD"/>
</linearGradient>
<linearGradient id="paint1_linear_54_10" x1="256" y1="483.294" x2="898" y2="483.294" gradientUnits="userSpaceOnUse">
<stop stop-color="#3FE8AB"/>
<stop offset="1" stop-color="#78CDCD"/>
</linearGradient>
<linearGradient id="paint2_linear_54_10" x1="185" y1="269" x2="276" y2="269" gradientUnits="userSpaceOnUse">
<stop stop-color="#3FE8AB"/>
<stop offset="1" stop-color="#78CDCD"/>
</linearGradient>
</defs>
</svg>
