<svg width="713" height="450" viewBox="0 0 713 450" fill="none" xmlns="http://www.w3.org/2000/svg">
<rect width="713" height="450" rx="20" fill="#2A2C2B"/>
<path d="M394.753 192.898C392.717 192.898 390.918 192.547 389.355 191.847C387.802 191.146 386.585 190.18 385.705 188.949C384.824 187.718 384.388 186.316 384.398 184.744C384.388 183.513 384.639 182.382 385.151 181.349C385.671 180.308 386.377 179.441 387.267 178.75C388.157 178.049 389.152 177.604 390.25 177.415V177.244C388.801 176.894 387.641 176.117 386.77 174.915C385.899 173.712 385.468 172.33 385.477 170.767C385.468 169.28 385.861 167.955 386.656 166.79C387.461 165.616 388.564 164.692 389.966 164.02C391.367 163.348 392.963 163.011 394.753 163.011C396.524 163.011 398.105 163.352 399.497 164.034C400.899 164.706 402.002 165.63 402.807 166.804C403.612 167.969 404.019 169.29 404.028 170.767C404.019 172.33 403.574 173.712 402.693 174.915C401.813 176.117 400.667 176.894 399.256 177.244V177.415C400.345 177.604 401.325 178.049 402.196 178.75C403.077 179.441 403.777 180.308 404.298 181.349C404.829 182.382 405.098 183.513 405.108 184.744C405.098 186.316 404.653 187.718 403.773 188.949C402.892 190.18 401.67 191.146 400.108 191.847C398.555 192.547 396.77 192.898 394.753 192.898ZM394.753 189.304C395.955 189.304 396.997 189.105 397.878 188.707C398.759 188.3 399.44 187.737 399.923 187.017C400.406 186.288 400.652 185.436 400.662 184.46C400.652 183.447 400.387 182.552 399.866 181.776C399.355 180.999 398.659 180.388 397.778 179.943C396.898 179.498 395.889 179.276 394.753 179.276C393.607 179.276 392.589 179.498 391.699 179.943C390.809 180.388 390.108 180.999 389.597 181.776C389.085 182.552 388.834 183.447 388.844 184.46C388.834 185.436 389.066 186.288 389.54 187.017C390.023 187.737 390.709 188.3 391.599 188.707C392.49 189.105 393.541 189.304 394.753 189.304ZM394.753 175.767C395.719 175.767 396.576 175.573 397.324 175.185C398.072 174.796 398.659 174.257 399.085 173.565C399.521 172.874 399.743 172.064 399.753 171.136C399.743 170.227 399.526 169.432 399.099 168.75C398.683 168.068 398.1 167.543 397.352 167.173C396.604 166.795 395.738 166.605 394.753 166.605C393.749 166.605 392.868 166.795 392.111 167.173C391.363 167.543 390.78 168.068 390.364 168.75C389.947 169.432 389.743 170.227 389.753 171.136C389.743 172.064 389.952 172.874 390.378 173.565C390.804 174.257 391.391 174.796 392.139 175.185C392.897 175.573 393.768 175.767 394.753 175.767ZM412.192 192.77C411.416 192.77 410.748 192.495 410.19 191.946C409.631 191.387 409.352 190.715 409.352 189.929C409.352 189.152 409.631 188.49 410.19 187.94C410.748 187.382 411.416 187.102 412.192 187.102C412.969 187.102 413.637 187.382 414.195 187.94C414.754 188.49 415.033 189.152 415.033 189.929C415.033 190.45 414.901 190.928 414.636 191.364C414.38 191.79 414.039 192.131 413.613 192.386C413.187 192.642 412.713 192.77 412.192 192.77ZM420.903 192.5L433.602 167.386V167.173H418.915V163.409H438.148V167.301L425.491 192.5H420.903ZM440.133 186.818V183.267L452.704 163.409H455.502V168.636H453.727L444.735 182.869V183.097H461.965V186.818H440.133ZM453.925 192.5V185.739L453.954 184.119V163.409H458.116V192.5H453.925ZM477.072 192.898C475.774 192.879 474.496 192.642 473.237 192.188C471.987 191.733 470.85 190.975 469.827 189.915C468.805 188.854 467.986 187.429 467.37 185.639C466.764 183.849 466.461 181.615 466.461 178.935C466.461 176.397 466.712 174.143 467.214 172.173C467.725 170.204 468.459 168.542 469.415 167.188C470.372 165.824 471.527 164.787 472.881 164.077C474.236 163.366 475.755 163.011 477.441 163.011C479.174 163.011 480.713 163.352 482.058 164.034C483.402 164.716 484.491 165.658 485.325 166.861C486.167 168.063 486.702 169.432 486.93 170.966H482.597C482.304 169.754 481.721 168.764 480.85 167.997C479.979 167.23 478.843 166.847 477.441 166.847C475.31 166.847 473.648 167.775 472.455 169.631C471.272 171.487 470.675 174.067 470.665 177.372H470.879C471.38 176.548 471.996 175.848 472.725 175.27C473.464 174.683 474.288 174.233 475.197 173.92C476.115 173.598 477.081 173.438 478.094 173.438C479.78 173.438 481.305 173.849 482.668 174.673C484.041 175.488 485.135 176.615 485.95 178.054C486.764 179.493 487.171 181.141 487.171 182.997C487.171 184.853 486.75 186.534 485.907 188.04C485.074 189.545 483.899 190.739 482.384 191.619C480.869 192.491 479.098 192.917 477.072 192.898ZM477.058 189.205C478.175 189.205 479.174 188.93 480.055 188.381C480.935 187.831 481.631 187.093 482.143 186.165C482.654 185.237 482.91 184.2 482.91 183.054C482.91 181.937 482.659 180.919 482.157 180C481.665 179.081 480.983 178.352 480.112 177.812C479.25 177.273 478.265 177.003 477.157 177.003C476.314 177.003 475.533 177.164 474.813 177.486C474.103 177.808 473.478 178.253 472.938 178.821C472.398 179.389 471.972 180.043 471.66 180.781C471.357 181.51 471.205 182.282 471.205 183.097C471.205 184.186 471.456 185.194 471.958 186.122C472.469 187.05 473.165 187.798 474.046 188.366C474.936 188.925 475.94 189.205 477.058 189.205ZM511.908 196.136V159.773H514.238V196.136H511.908ZM519.195 171.051C519.044 169.706 518.419 168.665 517.32 167.926C516.222 167.178 514.839 166.804 513.173 166.804C511.979 166.804 510.947 166.993 510.076 167.372C509.205 167.741 508.528 168.253 508.045 168.906C507.571 169.55 507.335 170.284 507.335 171.108C507.335 171.799 507.496 172.396 507.817 172.898C508.149 173.4 508.58 173.821 509.11 174.162C509.65 174.493 510.228 174.773 510.843 175C511.459 175.218 512.05 175.398 512.619 175.54L515.46 176.278C516.388 176.506 517.339 176.813 518.315 177.202C519.29 177.59 520.194 178.101 521.028 178.736C521.861 179.37 522.533 180.156 523.045 181.094C523.566 182.031 523.826 183.153 523.826 184.46C523.826 186.108 523.4 187.571 522.548 188.849C521.705 190.128 520.478 191.136 518.869 191.875C517.268 192.614 515.332 192.983 513.059 192.983C510.881 192.983 508.996 192.637 507.406 191.946C505.815 191.255 504.569 190.275 503.67 189.006C502.77 187.727 502.273 186.212 502.178 184.46H506.582C506.667 185.511 507.008 186.387 507.604 187.088C508.21 187.779 508.982 188.295 509.92 188.636C510.867 188.968 511.904 189.134 513.031 189.134C514.271 189.134 515.374 188.939 516.34 188.551C517.316 188.153 518.083 187.604 518.641 186.903C519.2 186.193 519.479 185.365 519.479 184.418C519.479 183.556 519.233 182.85 518.741 182.301C518.258 181.752 517.6 181.297 516.766 180.938C515.942 180.578 515.01 180.26 513.968 179.986L510.531 179.048C508.201 178.414 506.354 177.481 504.991 176.25C503.637 175.019 502.96 173.39 502.96 171.364C502.96 169.687 503.414 168.224 504.323 166.974C505.232 165.724 506.463 164.754 508.016 164.062C509.569 163.362 511.321 163.011 513.272 163.011C515.242 163.011 516.979 163.357 518.485 164.048C520 164.74 521.193 165.691 522.065 166.903C522.936 168.106 523.39 169.489 523.428 171.051H519.195Z" fill="#F7F7F7"/>
<rect x="507" y="43" width="172" height="47" rx="10" fill="url(#paint0_linear_54_8)"/>
<path d="M553.468 63.642C553.417 63.726 553.363 63.789 553.307 63.831C553.251 63.8683 553.181 63.887 553.097 63.887C553.008 63.887 552.908 63.8497 552.796 63.775C552.689 63.7003 552.553 63.6187 552.39 63.53C552.231 63.4367 552.042 63.3527 551.823 63.278C551.604 63.1987 551.342 63.159 551.039 63.159C550.759 63.159 550.512 63.194 550.297 63.264C550.087 63.334 549.91 63.432 549.765 63.558C549.62 63.684 549.511 63.8333 549.436 64.006C549.366 64.174 549.331 64.3583 549.331 64.559C549.331 64.8157 549.399 65.0303 549.534 65.203C549.669 65.371 549.847 65.5157 550.066 65.637C550.29 65.7583 550.544 65.8657 550.829 65.959C551.114 66.0477 551.403 66.1433 551.697 66.246C551.996 66.3487 552.287 66.4653 552.572 66.596C552.857 66.7267 553.109 66.8923 553.328 67.093C553.552 67.2937 553.732 67.5387 553.867 67.828C554.002 68.1173 554.07 68.4697 554.07 68.885C554.07 69.333 553.993 69.753 553.839 70.145C553.685 70.537 553.461 70.88 553.167 71.174C552.878 71.4633 552.518 71.692 552.089 71.86C551.664 72.028 551.179 72.112 550.633 72.112C550.311 72.112 549.996 72.0793 549.688 72.014C549.385 71.9533 549.093 71.867 548.813 71.755C548.538 71.6383 548.279 71.4983 548.036 71.335C547.793 71.1717 547.576 70.9897 547.385 70.789L547.861 70.005C547.903 69.9397 547.957 69.8883 548.022 69.851C548.087 69.8137 548.16 69.795 548.239 69.795C548.346 69.795 548.465 69.8463 548.596 69.949C548.727 70.047 548.883 70.1567 549.065 70.278C549.252 70.3947 549.476 70.5043 549.737 70.607C549.998 70.705 550.311 70.754 550.675 70.754C551.268 70.754 551.725 70.6093 552.047 70.32C552.374 70.0307 552.537 69.6317 552.537 69.123C552.537 68.8383 552.469 68.6073 552.334 68.43C552.199 68.248 552.019 68.0963 551.795 67.975C551.576 67.8537 551.324 67.751 551.039 67.667C550.754 67.583 550.465 67.4943 550.171 67.401C549.877 67.303 549.588 67.191 549.303 67.065C549.018 66.9343 548.764 66.7663 548.54 66.561C548.321 66.351 548.143 66.0943 548.008 65.791C547.873 65.483 547.805 65.1003 547.805 64.643C547.805 64.279 547.875 63.9267 548.015 63.586C548.16 63.2453 548.367 62.9443 548.638 62.683C548.913 62.417 549.252 62.2047 549.653 62.046C550.054 61.8873 550.512 61.808 551.025 61.808C551.604 61.808 552.133 61.899 552.614 62.081C553.099 62.263 553.517 62.522 553.867 62.858L553.468 63.642ZM563.533 70.677L563.526 72H557.24V61.92H563.526V63.243H558.885V66.281H562.595V67.562H558.885V70.677H563.533ZM569.842 67.058C570.206 67.058 570.526 67.0113 570.801 66.918C571.081 66.8247 571.312 66.694 571.494 66.526C571.681 66.3533 571.821 66.1457 571.914 65.903C572.007 65.6603 572.054 65.3897 572.054 65.091C572.054 64.797 572.007 64.5333 571.914 64.3C571.825 64.0667 571.69 63.8683 571.508 63.705C571.326 63.5417 571.095 63.418 570.815 63.334C570.54 63.2453 570.215 63.201 569.842 63.201H568.344V67.058H569.842ZM569.842 61.92C570.5 61.92 571.069 61.997 571.55 62.151C572.035 62.305 572.434 62.522 572.747 62.802C573.064 63.0773 573.3 63.411 573.454 63.803C573.608 64.1903 573.685 64.6197 573.685 65.091C573.685 65.5717 573.603 66.0127 573.44 66.414C573.277 66.8107 573.034 67.1537 572.712 67.443C572.39 67.7277 571.989 67.9517 571.508 68.115C571.032 68.2737 570.477 68.353 569.842 68.353H568.344V72H566.706V61.92H569.842ZM583.588 63.285H580.445V72H578.814V63.285H575.664V61.92H583.588V63.285ZM592.684 70.677L592.677 72H586.391V61.92H592.677V63.243H588.036V66.281H591.746V67.562H588.036V70.677H592.684ZM606.581 61.92V72H605.139V65.091C605.139 64.979 605.141 64.8577 605.146 64.727C605.155 64.5917 605.167 64.4563 605.181 64.321L601.94 70.306C601.814 70.5533 601.62 70.677 601.359 70.677H601.128C600.862 70.677 600.668 70.5533 600.547 70.306L597.257 64.307C597.271 64.4423 597.28 64.5777 597.285 64.713C597.294 64.8483 597.299 64.9743 597.299 65.091V72H595.857V61.92H597.082C597.227 61.92 597.339 61.934 597.418 61.962C597.497 61.9853 597.57 62.0623 597.635 62.193L600.869 68.052C600.939 68.1873 601.004 68.3273 601.065 68.472C601.13 68.612 601.189 68.7567 601.24 68.906C601.296 68.7567 601.354 68.6097 601.415 68.465C601.48 68.3157 601.548 68.1733 601.618 68.038L604.803 62.193C604.868 62.0623 604.941 61.9853 605.02 61.962C605.099 61.934 605.211 61.92 605.356 61.92H606.581ZM614.036 70.705C614.405 70.705 614.715 70.663 614.967 70.579C615.224 70.4903 615.432 70.3713 615.59 70.222C615.754 70.0727 615.87 69.8977 615.94 69.697C616.015 69.4917 616.052 69.2723 616.052 69.039C616.052 68.563 615.889 68.1897 615.562 67.919C615.24 67.6437 614.729 67.506 614.029 67.506H612.006V70.705H614.036ZM612.006 63.201V66.351H613.644C614.344 66.351 614.867 66.2157 615.212 65.945C615.558 65.6743 615.73 65.2847 615.73 64.776C615.73 64.2207 615.567 63.8193 615.24 63.572C614.918 63.3247 614.412 63.201 613.721 63.201H612.006ZM613.721 61.92C614.365 61.92 614.916 61.983 615.373 62.109C615.831 62.2303 616.206 62.4053 616.5 62.634C616.794 62.8627 617.009 63.1427 617.144 63.474C617.284 63.8007 617.354 64.1693 617.354 64.58C617.354 64.818 617.317 65.049 617.242 65.273C617.172 65.4923 617.06 65.7 616.906 65.896C616.757 66.0873 616.568 66.26 616.339 66.414C616.111 66.568 615.84 66.6963 615.527 66.799C616.955 67.1023 617.669 67.8607 617.669 69.074C617.669 69.5033 617.588 69.8977 617.424 70.257C617.266 70.6117 617.032 70.9197 616.724 71.181C616.421 71.4377 616.045 71.6383 615.597 71.783C615.149 71.9277 614.638 72 614.064 72H610.368V61.92H613.721ZM627.208 70.677L627.201 72H620.915V61.92H627.201V63.243H622.56V66.281H626.27V67.562H622.56V70.677H627.208ZM633.307 66.75C633.681 66.75 634.007 66.7057 634.287 66.617C634.567 66.5237 634.801 66.3953 634.987 66.232C635.174 66.0687 635.314 65.875 635.407 65.651C635.501 65.4223 635.547 65.1703 635.547 64.895C635.547 64.3443 635.365 63.9243 635.001 63.635C634.637 63.3457 634.087 63.201 633.349 63.201H632.019V66.75H633.307ZM638.053 72H636.59C636.301 72 636.091 71.888 635.96 71.664L633.608 68.269C633.529 68.1523 633.443 68.0683 633.349 68.017C633.256 67.9657 633.116 67.94 632.929 67.94H632.019V72H630.381V61.92H633.349C634.012 61.92 634.581 61.9877 635.057 62.123C635.538 62.2583 635.932 62.452 636.24 62.704C636.548 62.9513 636.775 63.25 636.919 63.6C637.069 63.95 637.143 64.3397 637.143 64.769C637.143 65.119 637.09 65.4457 636.982 65.749C636.88 66.0523 636.728 66.3277 636.527 66.575C636.331 66.8223 636.089 67.037 635.799 67.219C635.51 67.401 635.181 67.5433 634.812 67.646C635.013 67.7673 635.186 67.9377 635.33 68.157L638.053 72Z" fill="#111111"/>
<path d="M37 332L129.168 382.139C148.388 392.595 172.28 388.405 186.796 372.033L221.07 333.375C236.538 315.928 262.458 312.459 281.97 325.225L301.528 338.021C323.691 352.521 353.451 345.855 367.31 323.288L412.2 250.195C426.056 227.634 455.804 220.965 477.966 235.451L514.843 259.556C530.18 269.581 549.946 269.779 565.481 260.063L677.5 190" stroke="url(#paint1_linear_54_8)" stroke-width="6"/>
<g filter="url(#filter0_d_54_8)">
<circle cx="446.5" cy="230" r="15.5" fill="#1B1B1B"/>
<circle cx="446.5" cy="230" r="14.5" stroke="#71D0C9" stroke-width="2"/>
</g>
<defs>
<filter id="filter0_d_54_8" x="397" y="180.5" width="99" height="99" filterUnits="userSpaceOnUse" color-interpolation-filters="sRGB">
<feFlood flood-opacity="0" result="BackgroundImageFix"/>
<feColorMatrix in="SourceAlpha" type="matrix" values="0 0 0 0 0 0 0 0 0 0 0 0 0 0 0 0 0 0 127 0" result="hardAlpha"/>
<feOffset/>
<feGaussianBlur stdDeviation="17"/>
<feComposite in2="hardAlpha" operator="out"/>
<feColorMatrix type="matrix" values="0 0 0 0 1 0 0 0 0 1 0 0 0 0 1 0 0 0 0.15 0"/>
<feBlend mode="normal" in2="BackgroundImageFix" result="effect1_dropShadow_54_8"/>
<feBlend mode="normal" in="SourceGraphic" in2="effect1_dropShadow_54_8" result="shape"/>
</filter>
<linearGradient id="paint0_linear_54_8" x1="507" y1="90" x2="679" y2="90" gradientUnits="userSpaceOnUse">
<stop stop-color="#3FE8AB"/>
<stop offset="1" stop-color="#78CDCD"/>
</linearGradient>
<linearGradient id="paint1_linear_54_8" x1="37" y1="257.294" x2="679" y2="257.294" gradientUnits="userSpaceOnUse">
<stop stop-color="#3FE8AB"/>
<stop offset="1" stop-color="#78CDCD"/>
</linearGradient>
</defs>
</svg>
