<svg width="246" height="41" viewBox="0 0 246 41" fill="none" xmlns="http://www.w3.org/2000/svg">
<g opacity="0.6">
<path d="M42.243 36.1804L47.4435 4.85498H59.4352C61.6989 4.85498 63.5242 5.21188 64.911 5.92567C66.2978 6.62927 67.2614 7.59289 67.8019 8.81654C68.3525 10.0402 68.4953 11.427 68.2302 12.9769C68.016 14.2414 67.5877 15.3274 66.9453 16.2349C66.3131 17.1322 65.5381 17.8664 64.6204 18.4375C63.7027 18.9983 62.7186 19.4011 61.6684 19.6458L61.6072 19.9517C62.7085 20.0027 63.718 20.3392 64.6357 20.9612C65.5534 21.5833 66.2468 22.4602 66.7159 23.5921C67.185 24.7138 67.292 26.0649 67.0371 27.6454C66.7618 29.2667 66.1245 30.7249 65.1252 32.02C64.1258 33.3048 62.7696 34.3194 61.0565 35.0638C59.3536 35.8082 57.3091 36.1804 54.923 36.1804H42.243ZM48.713 31.4387H54.8159C56.8655 31.4387 58.4155 31.0461 59.4658 30.261C60.5161 29.4656 61.1432 28.4459 61.3471 27.2018C61.5001 26.2739 61.4083 25.4377 61.0718 24.6934C60.7353 23.9388 60.1796 23.3474 59.4046 22.9191C58.6296 22.4806 57.6609 22.2614 56.4984 22.2614H50.2272L48.713 31.4387ZM50.9308 18.1774H56.5443C57.5232 18.1774 58.4308 17.999 59.2669 17.6421C60.1133 17.275 60.8169 16.76 61.3777 16.0972C61.9488 15.4242 62.3006 14.6289 62.4331 13.7111C62.6473 12.4977 62.3923 11.4984 61.6684 10.7132C60.9444 9.92802 59.7513 9.53543 58.0892 9.53543H52.338L50.9308 18.1774Z" fill="#B5B5B5"/>
<path d="M82.3362 4.85498L77.1357 36.1804H71.5987L76.7992 4.85498H82.3362Z" fill="#B5B5B5"/>
<path d="M94.4309 36.6392C92.1162 36.6392 90.1889 36.1294 88.6492 35.1097C87.1196 34.09 86.0438 32.6573 85.4218 30.8116C84.7998 28.9659 84.6876 26.8245 85.0853 24.3875C85.483 21.9809 86.2783 19.8753 87.4714 18.0704C88.6747 16.2655 90.1889 14.8685 92.0142 13.8794C93.8497 12.8801 95.9044 12.3804 98.1783 12.3804C100.493 12.3804 102.415 12.8954 103.945 13.9253C105.474 14.945 106.55 16.3777 107.172 18.2233C107.804 20.069 107.922 22.2206 107.524 24.6781C107.136 27.0744 106.336 29.1699 105.123 30.9646C103.919 32.7592 102.405 34.1562 100.58 35.1555C98.7544 36.1447 96.7048 36.6392 94.4309 36.6392ZM94.8898 32.2035C96.1746 32.2035 97.3014 31.8568 98.2701 31.1634C99.249 30.4598 100.049 29.5166 100.671 28.3337C101.304 27.1407 101.742 25.815 101.987 24.3569C102.211 22.9497 102.216 21.675 102.002 20.533C101.788 19.3807 101.329 18.4681 100.626 17.7951C99.9322 17.1118 98.9686 16.7702 97.7347 16.7702C96.4499 16.7702 95.3129 17.1271 94.3238 17.8409C93.3449 18.5445 92.5444 19.4929 91.9224 20.6859C91.3004 21.8688 90.8721 23.1893 90.6376 24.6475C90.4031 26.0547 90.3929 27.3293 90.607 28.4714C90.8211 29.6134 91.28 30.521 91.9836 31.194C92.6872 31.867 93.6559 32.2035 94.8898 32.2035Z" fill="#B5B5B5"/>
<path d="M121.806 36.6392C119.461 36.6392 117.533 36.1243 116.024 35.0944C114.515 34.0645 113.46 32.642 112.858 30.8269C112.267 29.0016 112.17 26.901 112.567 24.5251C112.955 22.139 113.755 20.0333 114.969 18.208C116.192 16.3726 117.732 14.945 119.588 13.9253C121.444 12.8954 123.519 12.3804 125.813 12.3804C127.72 12.3804 129.347 12.7322 130.693 13.4358C132.049 14.1292 133.058 15.1132 133.721 16.3879C134.394 17.6523 134.654 19.1309 134.501 20.8236H129.194C129.173 19.6917 128.821 18.7485 128.138 17.9939C127.455 17.2291 126.456 16.8467 125.14 16.8467C123.998 16.8467 122.948 17.1526 121.989 17.7645C121.031 18.3661 120.22 19.2328 119.557 20.3647C118.895 21.4966 118.436 22.8528 118.181 24.4333C117.916 26.0343 117.921 27.4109 118.196 28.5631C118.482 29.7052 118.997 30.5873 119.741 31.2093C120.496 31.8211 121.449 32.127 122.601 32.127C123.417 32.127 124.177 31.9741 124.88 31.6682C125.584 31.352 126.201 30.8983 126.731 30.3068C127.271 29.7154 127.695 28.9965 128.001 28.1502H133.293C132.875 29.8123 132.13 31.2858 131.06 32.5706C129.999 33.8452 128.684 34.8445 127.113 35.5685C125.543 36.2823 123.774 36.6392 121.806 36.6392Z" fill="#B5B5B5"/>
<path d="M144.026 28.8079L145.112 22.1237H145.999L156.049 12.6863H162.519L150.221 24.2498H149.089L144.026 28.8079ZM137.77 36.1804L142.971 4.85498H148.508L143.307 36.1804H137.77ZM152.515 36.1804L146.642 25.4887L151.032 21.5884L159.138 36.1804H152.515Z" fill="#B5B5B5"/>
<path d="M179.233 12.6863L178.514 16.9691H165.023L165.727 12.6863H179.233ZM169.979 7.05755H175.516L171.845 29.1138C171.733 29.8582 171.753 30.4292 171.906 30.8269C172.069 31.2144 172.329 31.4795 172.686 31.6223C173.053 31.765 173.466 31.8364 173.925 31.8364C174.261 31.8364 174.578 31.8109 174.873 31.7599C175.169 31.6987 175.404 31.6529 175.577 31.6223L175.822 35.9509C175.485 36.0529 175.031 36.1651 174.46 36.2874C173.9 36.4098 173.227 36.4812 172.441 36.5016C171.034 36.5322 169.81 36.318 168.77 35.8591C167.74 35.3901 166.986 34.6712 166.507 33.7025C166.038 32.7235 165.93 31.4999 166.185 30.0315L169.979 7.05755Z" fill="#B5B5B5"/>
<path d="M197.851 26.2994L200.13 12.6863H205.667L201.751 36.1804H196.382L197.086 32.0047H196.841C196.107 33.3201 195.057 34.3959 193.69 35.232C192.334 36.0682 190.774 36.4863 189.01 36.4863C187.47 36.4863 186.17 36.1447 185.11 35.4615C184.049 34.7681 183.295 33.7636 182.846 32.4482C182.407 31.1226 182.341 29.5217 182.647 27.6454L185.155 12.6863H190.692L188.337 26.7889C188.102 28.2776 188.317 29.4605 188.979 30.3374C189.652 31.2144 190.652 31.6529 191.977 31.6529C192.793 31.6529 193.614 31.454 194.44 31.0563C195.276 30.6586 196.005 30.0672 196.627 29.282C197.249 28.4867 197.657 27.4925 197.851 26.2994Z" fill="#B5B5B5"/>
<path d="M215.437 36.6545C213.948 36.6545 212.653 36.3894 211.552 35.8591C210.45 35.3187 209.64 34.5233 209.12 33.473C208.61 32.4227 208.482 31.1277 208.737 29.588C208.961 28.2623 209.39 27.1661 210.022 26.2994C210.664 25.4326 211.45 24.7393 212.377 24.2192C213.316 23.689 214.335 23.2913 215.437 23.0261C216.548 22.761 217.68 22.5673 218.832 22.4449C220.239 22.3022 221.376 22.1696 222.243 22.0472C223.12 21.9249 223.778 21.7413 224.216 21.4966C224.655 21.2417 224.92 20.8542 225.012 20.3341V20.2423C225.195 19.0901 225.012 18.1978 224.461 17.5656C223.91 16.9334 222.993 16.6173 221.708 16.6173C220.362 16.6173 219.23 16.913 218.312 17.5044C217.394 18.0959 216.727 18.7944 216.308 19.5999L211.291 18.8657C211.924 17.4382 212.79 16.2451 213.892 15.2866C214.993 14.3179 216.263 13.5939 217.7 13.1146C219.148 12.6251 220.693 12.3804 222.335 12.3804C223.457 12.3804 224.553 12.513 225.623 12.7781C226.704 13.0432 227.658 13.4817 228.484 14.0935C229.32 14.6951 229.932 15.516 230.319 16.5561C230.717 17.5962 230.783 18.8963 230.518 20.4565L227.903 36.1804H222.58L223.13 32.953H222.947C222.508 33.6056 221.937 34.2174 221.234 34.7885C220.53 35.3493 219.694 35.8031 218.725 36.1498C217.756 36.4863 216.66 36.6545 215.437 36.6545ZM217.532 32.5859C218.644 32.5859 219.643 32.3667 220.53 31.9282C221.417 31.4795 222.146 30.8881 222.717 30.1539C223.288 29.4197 223.645 28.6192 223.788 27.7525L224.247 24.984C224.043 25.1267 223.727 25.2593 223.299 25.3817C222.87 25.504 222.391 25.6111 221.861 25.7029C221.341 25.7946 220.826 25.8762 220.316 25.9476C219.806 26.019 219.368 26.0802 219 26.1311C218.154 26.2433 217.379 26.4269 216.676 26.6818C215.982 26.9367 215.406 27.2936 214.947 27.7525C214.498 28.2012 214.218 28.7824 214.106 29.4962C213.943 30.5057 214.182 31.2756 214.825 31.8058C215.467 32.3259 216.37 32.5859 217.532 32.5859Z" fill="#B5B5B5"/>
<path d="M245.5 4.85498L240.299 36.1804H234.762L239.963 4.85498H245.5Z" fill="#B5B5B5"/>
<circle cx="20.1732" cy="20.6654" r="9.56278" stroke="#B5B5B5" stroke-width="6"/>
<circle cx="20.1731" cy="20.6655" r="18.7415" stroke="#B5B5B5" stroke-width="2"/>
</g>
</svg>
