<svg width="174" height="31" viewBox="0 0 174 31" fill="none" xmlns="http://www.w3.org/2000/svg">
<g opacity="0.6">
<path d="M42.4569 5.44772H50.1621V30.1964H55.1453V5.44772H62.8924V0.883247H42.4569V5.44772Z" fill="#B5B5B5"/>
<path d="M69.179 15.5398C69.179 14.0323 69.4163 12.6504 69.8909 11.3941C70.3934 10.1099 71.0913 9.00718 71.9847 8.08591C72.878 7.13672 73.9249 6.41087 75.1254 5.90836C76.3537 5.37793 77.7077 5.11272 79.1873 5.11272C80.639 5.11272 81.9651 5.37793 83.1655 5.90836C84.3939 6.41087 85.4548 7.13672 86.3481 8.08591C87.2415 9.00718 87.9254 10.1099 88.4 11.3941C88.8746 12.6504 89.1119 14.0323 89.1119 15.5398C89.1119 17.0474 88.8607 18.4432 88.3582 19.7274C87.8836 20.9837 87.1996 22.0864 86.3062 23.0356C85.4129 23.9569 84.352 24.6827 83.1237 25.2132C81.9232 25.7157 80.5972 25.9669 79.1455 25.9669C77.6938 25.9669 76.3537 25.7157 75.1254 25.2132C73.9249 24.6827 72.878 23.9569 71.9847 23.0356C71.0913 22.0864 70.3934 20.9837 69.8909 19.7274C69.4163 18.4432 69.179 17.0474 69.179 15.5398ZM63.9445 15.5398C63.9445 17.7174 64.3214 19.7414 65.0751 21.6118C65.8289 23.4544 66.8898 25.0736 68.2577 26.4694C69.6257 27.8374 71.2309 28.9122 73.0734 29.6939C74.916 30.4477 76.94 30.8245 79.1455 30.8245C81.3509 30.8245 83.3749 30.4477 85.2175 29.6939C87.0879 28.9122 88.7071 27.8374 90.0751 26.4694C91.443 25.0736 92.5039 23.4544 93.2576 21.6118C94.0114 19.7414 94.3883 17.7174 94.3883 15.5398C94.3883 13.3623 94.0114 11.3522 93.2576 9.50969C92.5039 7.63923 91.4291 6.03399 90.0332 4.69396C88.6653 3.32601 87.046 2.26515 85.1756 1.51139C83.333 0.75762 81.323 0.380737 79.1455 0.380737C76.9679 0.380737 74.9579 0.75762 73.1153 1.51139C71.2728 2.26515 69.6536 3.32601 68.2577 4.69396C66.8898 6.03399 65.8289 7.63923 65.0751 9.50969C64.3214 11.3522 63.9445 13.3623 63.9445 15.5398Z" fill="#B5B5B5"/>
<path d="M100.45 0.883247V30.1964H105.392V0.883247H100.45ZM103.381 5.23835H109.286C110.431 5.23835 111.422 5.41981 112.259 5.78273C113.097 6.14566 113.753 6.67608 114.227 7.37402C114.702 8.07195 114.939 8.95134 114.939 10.0122C114.939 11.0451 114.702 11.9245 114.227 12.6504C113.753 13.3483 113.097 13.8787 112.259 14.2417C111.422 14.5767 110.431 14.7442 109.286 14.7442H103.381V19.0993H109.286C111.436 19.0993 113.292 18.7364 114.855 18.0105C116.419 17.2567 117.633 16.2098 118.499 14.8698C119.364 13.5019 119.797 11.8827 119.797 10.0122C119.797 8.14174 119.364 6.52254 118.499 5.15459C117.633 3.78665 116.419 2.73975 114.855 2.0139C113.292 1.26013 111.436 0.883247 109.286 0.883247H103.381V5.23835Z" fill="#B5B5B5"/>
<path d="M125.707 0.883247V20.5649C125.707 22.1841 125.958 23.6358 126.46 24.92C126.991 26.2042 127.731 27.293 128.68 28.1864C129.629 29.0797 130.76 29.7637 132.072 30.2383C133.384 30.7129 134.822 30.9502 136.385 30.9502C137.948 30.9502 139.386 30.7129 140.698 30.2383C142.01 29.7637 143.141 29.0797 144.09 28.1864C145.039 27.293 145.765 26.2042 146.268 24.92C146.798 23.6358 147.063 22.1841 147.063 20.5649V0.883247H142.122V20.3556C142.122 21.556 141.899 22.6169 141.452 23.5381C141.033 24.4315 140.391 25.1294 139.526 25.6319C138.688 26.1344 137.641 26.3857 136.385 26.3857C135.129 26.3857 134.068 26.1344 133.202 25.6319C132.365 25.1294 131.723 24.4315 131.276 23.5381C130.857 22.6169 130.648 21.556 130.648 20.3556V0.883247H125.707Z" fill="#B5B5B5"/>
<path d="M154.653 0.883247V30.1964H159.595V0.883247H154.653ZM157.585 5.23835H163.489C164.634 5.23835 165.625 5.41981 166.462 5.78273C167.3 6.14566 167.956 6.67608 168.431 7.37402C168.905 8.07195 169.142 8.95134 169.142 10.0122C169.142 11.0451 168.905 11.9245 168.431 12.6504C167.956 13.3483 167.3 13.8787 166.462 14.2417C165.625 14.5767 164.634 14.7442 163.489 14.7442H157.585V19.0993H163.489C165.639 19.0993 167.495 18.7364 169.059 18.0105C170.622 17.2567 171.836 16.2098 172.702 14.8698C173.567 13.5019 174 11.8827 174 10.0122C174 8.14174 173.567 6.52254 172.702 5.15459C171.836 3.78665 170.622 2.73975 169.059 2.0139C167.495 1.26013 165.639 0.883247 163.489 0.883247H157.585V5.23835Z" fill="#B5B5B5"/>
<path fill-rule="evenodd" clip-rule="evenodd" d="M14.1396 1.59058H0.24585V30.8685H31.3537V1.59058H17.46L24.5157 9.36748H18.5447V27.2088H13.055V9.36748H7.08387L14.1396 1.59058Z" fill="#B5B5B5"/>
</g>
</svg>
