<svg width="102" height="73" viewBox="0 0 102 73" fill="none" xmlns="http://www.w3.org/2000/svg">
<path d="M41.0369 28.554H34.3892C34.1335 27.1335 33.6577 25.8835 32.9616 24.804C32.2656 23.7244 31.4134 22.8082 30.4048 22.0554C29.3963 21.3026 28.267 20.7344 27.017 20.3509C25.7813 19.9673 24.4673 19.7756 23.0753 19.7756C20.5611 19.7756 18.3097 20.4077 16.321 21.6719C14.3466 22.9361 12.7841 24.7898 11.6335 27.233C10.4972 29.6761 9.92898 32.6591 9.92898 36.1818C9.92898 39.733 10.4972 42.7301 11.6335 45.1733C12.7841 47.6165 14.3537 49.4631 16.3423 50.7131C18.331 51.9631 20.5682 52.5881 23.054 52.5881C24.4318 52.5881 25.7386 52.4034 26.9744 52.0341C28.2244 51.6506 29.3537 51.0895 30.3622 50.3509C31.3707 49.6122 32.223 48.7102 32.919 47.6449C33.6293 46.5653 34.1193 45.3295 34.3892 43.9375L41.0369 43.9588C40.6818 46.1037 39.9929 48.0781 38.9702 49.8821C37.9616 51.6719 36.6619 53.2202 35.071 54.527C33.4943 55.8196 31.6903 56.821 29.6591 57.5312C27.6278 58.2415 25.4119 58.5966 23.0114 58.5966C19.233 58.5966 15.8665 57.7017 12.9119 55.9119C9.95739 54.108 7.62784 51.5298 5.9233 48.1776C4.23295 44.8253 3.38778 40.8267 3.38778 36.1818C3.38778 31.5227 4.24006 27.5241 5.9446 24.1861C7.64915 20.8338 9.97869 18.2628 12.9332 16.473C15.8878 14.669 19.2472 13.767 23.0114 13.767C25.3267 13.767 27.4858 14.1009 29.4886 14.7685C31.5057 15.4219 33.3168 16.3878 34.9219 17.6662C36.527 18.9304 37.8551 20.4787 38.9062 22.3111C39.9574 24.1293 40.6676 26.2102 41.0369 28.554Z" fill="url(#paint0_linear_4_35)"/>
<path d="M47.6875 29V17H49.4687V18.8125H49.5938C49.8125 18.2188 50.2083 17.737 50.7813 17.3672C51.3542 16.9974 52 16.8125 52.7188 16.8125C52.8542 16.8125 53.0234 16.8151 53.2266 16.8203C53.4297 16.8255 53.5833 16.8333 53.6875 16.8438V18.7187C53.625 18.7031 53.4818 18.6797 53.2578 18.6484C53.0391 18.612 52.8073 18.5937 52.5625 18.5937C51.9792 18.5937 51.4583 18.7161 51 18.9609C50.5469 19.2005 50.1875 19.5339 49.9219 19.9609C49.6615 20.3828 49.5313 20.8646 49.5313 21.4062V29H47.6875ZM57.4258 33.5C57.1133 33.5 56.8346 33.474 56.5898 33.4219C56.3451 33.375 56.1758 33.3281 56.082 33.2813L56.5508 31.6563C56.9987 31.7708 57.3945 31.8125 57.7383 31.7812C58.082 31.75 58.3867 31.5964 58.6523 31.3203C58.9232 31.0495 59.1706 30.6094 59.3945 30L59.7383 29.0625L55.3008 17H57.3008L60.6133 26.5625H60.7383L64.0508 17H66.0508L60.957 30.75C60.7279 31.3698 60.444 31.8828 60.1055 32.2891C59.7669 32.7005 59.3737 33.0052 58.9258 33.2031C58.4831 33.401 57.9831 33.5 57.4258 33.5ZM68.4844 33.5V17H70.2656V18.9062H70.4844C70.6198 18.6979 70.8073 18.4323 71.0469 18.1094C71.2917 17.7812 71.6406 17.4896 72.0938 17.2344C72.5521 16.974 73.1719 16.8438 73.9531 16.8438C74.9635 16.8438 75.8542 17.0964 76.625 17.6016C77.3958 18.1068 77.9974 18.8229 78.4297 19.75C78.862 20.6771 79.0781 21.7708 79.0781 23.0313C79.0781 24.3021 78.862 25.4036 78.4297 26.3359C77.9974 27.263 77.3984 27.9818 76.6328 28.4922C75.8672 28.9974 74.9844 29.25 73.9844 29.25C73.2135 29.25 72.5964 29.1224 72.1328 28.8672C71.6693 28.6068 71.3125 28.3125 71.0625 27.9844C70.8125 27.651 70.6198 27.375 70.4844 27.1562H70.3281V33.5H68.4844ZM70.2969 23C70.2969 23.9062 70.4297 24.7057 70.6953 25.3984C70.9609 26.0859 71.349 26.625 71.8594 27.0156C72.3698 27.401 72.9948 27.5938 73.7344 27.5938C74.5052 27.5938 75.1484 27.3906 75.6641 26.9844C76.1849 26.5729 76.5755 26.0208 76.8359 25.3281C77.1016 24.6302 77.2344 23.8542 77.2344 23C77.2344 22.1562 77.1042 21.3958 76.8438 20.7187C76.5885 20.0365 76.2005 19.4974 75.6797 19.1016C75.1641 18.7005 74.5156 18.5 73.7344 18.5C72.9844 18.5 72.3542 18.6901 71.8438 19.0703C71.3333 19.4453 70.9479 19.9714 70.6875 20.6484C70.4271 21.3203 70.2969 22.1042 70.2969 23ZM87.1094 17V18.5625H80.8906V17H87.1094ZM82.7031 14.125H84.5469V25.5625C84.5469 26.0833 84.6224 26.474 84.7734 26.7344C84.9297 26.9896 85.1276 27.1615 85.3672 27.25C85.612 27.3333 85.8698 27.375 86.1406 27.375C86.3438 27.375 86.5104 27.3646 86.6406 27.3437C86.7708 27.3177 86.875 27.2969 86.9531 27.2812L87.3281 28.9375C87.2031 28.9844 87.0286 29.0313 86.8047 29.0781C86.5807 29.1302 86.2969 29.1563 85.9531 29.1563C85.4323 29.1563 84.9219 29.0443 84.4219 28.8203C83.9271 28.5964 83.5156 28.2552 83.1875 27.7969C82.8646 27.3385 82.7031 26.7604 82.7031 26.0625V14.125ZM94.6289 29.25C93.5456 29.25 92.5951 28.9922 91.7773 28.4766C90.9648 27.9609 90.3294 27.2396 89.8711 26.3125C89.418 25.3854 89.1914 24.3021 89.1914 23.0625C89.1914 21.8125 89.418 20.7214 89.8711 19.7891C90.3294 18.8568 90.9648 18.1328 91.7773 17.6172C92.5951 17.1016 93.5456 16.8438 94.6289 16.8438C95.7122 16.8438 96.6602 17.1016 97.4727 17.6172C98.2904 18.1328 98.9258 18.8568 99.3789 19.7891C99.8372 20.7214 100.066 21.8125 100.066 23.0625C100.066 24.3021 99.8372 25.3854 99.3789 26.3125C98.9258 27.2396 98.2904 27.9609 97.4727 28.4766C96.6602 28.9922 95.7122 29.25 94.6289 29.25ZM94.6289 27.5938C95.4518 27.5938 96.1289 27.3828 96.6602 26.9609C97.1914 26.5391 97.5846 25.9844 97.8398 25.2969C98.0951 24.6094 98.2227 23.8646 98.2227 23.0625C98.2227 22.2604 98.0951 21.513 97.8398 20.8203C97.5846 20.1276 97.1914 19.5677 96.6602 19.1406C96.1289 18.7135 95.4518 18.5 94.6289 18.5C93.806 18.5 93.1289 18.7135 92.5977 19.1406C92.0664 19.5677 91.6732 20.1276 91.418 20.8203C91.1628 21.513 91.0352 22.2604 91.0352 23.0625C91.0352 23.8646 91.1628 24.6094 91.418 25.2969C91.6732 25.9844 92.0664 26.5391 92.5977 26.9609C93.1289 27.3828 93.806 27.5938 94.6289 27.5938ZM52.5625 57.25C51.4792 57.25 50.5286 56.9922 49.7109 56.4766C48.8984 55.9609 48.263 55.2396 47.8047 54.3125C47.3516 53.3854 47.125 52.3021 47.125 51.0625C47.125 49.8125 47.3516 48.7214 47.8047 47.7891C48.263 46.8568 48.8984 46.1328 49.7109 45.6172C50.5286 45.1016 51.4792 44.8438 52.5625 44.8438C53.6458 44.8438 54.5938 45.1016 55.4063 45.6172C56.224 46.1328 56.8594 46.8568 57.3125 47.7891C57.7708 48.7214 58 49.8125 58 51.0625C58 52.3021 57.7708 53.3854 57.3125 54.3125C56.8594 55.2396 56.224 55.9609 55.4063 56.4766C54.5938 56.9922 53.6458 57.25 52.5625 57.25ZM52.5625 55.5938C53.3854 55.5938 54.0625 55.3828 54.5938 54.9609C55.125 54.5391 55.5182 53.9844 55.7734 53.2969C56.0286 52.6094 56.1563 51.8646 56.1563 51.0625C56.1563 50.2604 56.0286 49.513 55.7734 48.8203C55.5182 48.1276 55.125 47.5677 54.5938 47.1406C54.0625 46.7135 53.3854 46.5 52.5625 46.5C51.7396 46.5 51.0625 46.7135 50.5313 47.1406C50 47.5677 49.6068 48.1276 49.3516 48.8203C49.0964 49.513 48.9688 50.2604 48.9688 51.0625C48.9688 51.8646 49.0964 52.6094 49.3516 53.2969C49.6068 53.9844 50 54.5391 50.5313 54.9609C51.0625 55.3828 51.7396 55.5938 52.5625 55.5938ZM65.3457 57.25C64.3457 57.25 63.4629 56.9974 62.6973 56.4922C61.9316 55.9818 61.3327 55.263 60.9004 54.3359C60.4681 53.4036 60.252 52.3021 60.252 51.0313C60.252 49.7708 60.4681 48.6771 60.9004 47.75C61.3327 46.8229 61.9342 46.1068 62.7051 45.6016C63.4759 45.0964 64.3665 44.8438 65.377 44.8438C66.1582 44.8438 66.7754 44.974 67.2285 45.2344C67.6868 45.4896 68.0358 45.7812 68.2754 46.1094C68.5202 46.4323 68.7103 46.6979 68.8457 46.9062H69.002V41H70.8457V57H69.0645V55.1562H68.8457C68.7103 55.375 68.5176 55.651 68.2676 55.9844C68.0176 56.3125 67.6608 56.6068 67.1973 56.8672C66.7337 57.1224 66.1165 57.25 65.3457 57.25ZM65.5957 55.5938C66.3353 55.5938 66.9603 55.401 67.4707 55.0156C67.9811 54.625 68.3691 54.0859 68.6348 53.3984C68.9004 52.7057 69.0332 51.9062 69.0332 51C69.0332 50.1042 68.903 49.3203 68.6426 48.6484C68.3822 47.9714 67.9967 47.4453 67.4863 47.0703C66.9759 46.6901 66.3457 46.5 65.5957 46.5C64.8145 46.5 64.1634 46.7005 63.6426 47.1016C63.127 47.4974 62.7389 48.0365 62.4785 48.7187C62.2233 49.3958 62.0957 50.1562 62.0957 51C62.0957 51.8542 62.2259 52.6302 62.4863 53.3281C62.752 54.0208 63.1426 54.5729 63.6582 54.9844C64.179 55.3906 64.8249 55.5938 65.5957 55.5938ZM79.5098 57.25C78.3535 57.25 77.3561 56.9948 76.5176 56.4844C75.6842 55.9688 75.041 55.25 74.5879 54.3281C74.14 53.401 73.916 52.3229 73.916 51.0938C73.916 49.8646 74.14 48.7812 74.5879 47.8437C75.041 46.901 75.6712 46.1667 76.4785 45.6406C77.291 45.1094 78.2389 44.8438 79.3223 44.8438C79.9473 44.8438 80.5645 44.9479 81.1738 45.1562C81.7832 45.3646 82.3379 45.7031 82.8379 46.1719C83.3379 46.6354 83.7363 47.25 84.0332 48.0156C84.3301 48.7812 84.4785 49.724 84.4785 50.8437V51.625H75.2285V50.0312H82.6035C82.6035 49.3542 82.4681 48.75 82.1973 48.2187C81.9316 47.6875 81.5514 47.2682 81.0566 46.9609C80.5671 46.6536 79.9889 46.5 79.3223 46.5C78.5879 46.5 77.9525 46.6823 77.416 47.0469C76.8848 47.4062 76.4759 47.875 76.1895 48.4531C75.903 49.0312 75.7598 49.651 75.7598 50.3125V51.375C75.7598 52.2813 75.916 53.0495 76.2285 53.6797C76.5462 54.3047 76.9863 54.7812 77.5488 55.1094C78.1113 55.4323 78.765 55.5938 79.5098 55.5938C79.9941 55.5938 80.4316 55.526 80.8223 55.3906C81.2181 55.25 81.5592 55.0417 81.8457 54.7656C82.1322 54.4844 82.3535 54.1354 82.5098 53.7187L84.291 54.2188C84.1035 54.8229 83.7884 55.3542 83.3457 55.8125C82.903 56.2656 82.3561 56.6198 81.7051 56.875C81.054 57.125 80.3223 57.25 79.5098 57.25Z" fill="#F7F7F7"/>
<defs>
<linearGradient id="paint0_linear_4_35" x1="0" y1="73" x2="45" y2="73" gradientUnits="userSpaceOnUse">
<stop stop-color="#3FE8AB"/>
<stop offset="1" stop-color="#78CDCD"/>
</linearGradient>
</defs>
</svg>
