<svg width="949" height="710" viewBox="0 0 949 710" fill="none" xmlns="http://www.w3.org/2000/svg">
<rect x="332" y="445" width="584" height="265" rx="20" fill="#3B3D3C"/>
<path d="M392.484 613.318V609.767L405.055 589.909H407.854V595.136H406.078L397.087 609.369V609.597H414.317V613.318H392.484ZM406.277 619V612.239L406.305 610.619V589.909H410.467V619H406.277ZM429.423 619.398C428.126 619.379 426.848 619.142 425.588 618.688C424.338 618.233 423.202 617.475 422.179 616.415C421.156 615.354 420.337 613.929 419.722 612.139C419.116 610.349 418.812 608.115 418.812 605.435C418.812 602.897 419.063 600.643 419.565 598.673C420.077 596.704 420.811 595.042 421.767 593.688C422.723 592.324 423.879 591.287 425.233 590.577C426.587 589.866 428.107 589.511 429.793 589.511C431.526 589.511 433.064 589.852 434.409 590.534C435.754 591.216 436.843 592.158 437.676 593.361C438.519 594.563 439.054 595.932 439.281 597.466H434.949C434.655 596.254 434.073 595.264 433.202 594.497C432.33 593.73 431.194 593.347 429.793 593.347C427.662 593.347 426 594.275 424.807 596.131C423.623 597.987 423.027 600.567 423.017 603.872H423.23C423.732 603.048 424.348 602.348 425.077 601.77C425.815 601.183 426.639 600.733 427.548 600.42C428.467 600.098 429.433 599.938 430.446 599.938C432.132 599.938 433.656 600.349 435.02 601.173C436.393 601.988 437.487 603.115 438.301 604.554C439.116 605.993 439.523 607.641 439.523 609.497C439.523 611.353 439.101 613.034 438.259 614.54C437.425 616.045 436.251 617.239 434.736 618.119C433.221 618.991 431.45 619.417 429.423 619.398ZM429.409 615.705C430.527 615.705 431.526 615.43 432.406 614.881C433.287 614.331 433.983 613.593 434.494 612.665C435.006 611.737 435.261 610.7 435.261 609.554C435.261 608.437 435.01 607.419 434.509 606.5C434.016 605.581 433.334 604.852 432.463 604.312C431.601 603.773 430.616 603.503 429.509 603.503C428.666 603.503 427.884 603.664 427.165 603.986C426.455 604.308 425.83 604.753 425.29 605.321C424.75 605.889 424.324 606.543 424.011 607.281C423.708 608.01 423.557 608.782 423.557 609.597C423.557 610.686 423.808 611.694 424.31 612.622C424.821 613.55 425.517 614.298 426.398 614.866C427.288 615.425 428.292 615.705 429.409 615.705ZM454.299 619.398C452.519 619.398 450.918 619.057 449.498 618.375C448.087 617.684 446.96 616.737 446.117 615.534C445.274 614.331 444.825 612.958 444.768 611.415H449.029C449.133 612.665 449.687 613.692 450.691 614.497C451.695 615.302 452.897 615.705 454.299 615.705C455.416 615.705 456.406 615.449 457.268 614.938C458.139 614.417 458.821 613.702 459.313 612.793C459.815 611.884 460.066 610.847 460.066 609.682C460.066 608.498 459.81 607.442 459.299 606.514C458.788 605.586 458.082 604.857 457.183 604.327C456.292 603.796 455.27 603.527 454.114 603.517C453.234 603.517 452.348 603.669 451.458 603.972C450.568 604.275 449.848 604.672 449.299 605.165L445.279 604.568L446.913 589.909H462.907V593.673H450.563L449.64 601.812H449.81C450.379 601.263 451.131 600.804 452.069 600.435C453.016 600.065 454.029 599.881 455.109 599.881C456.879 599.881 458.456 600.302 459.839 601.145C461.231 601.988 462.325 603.138 463.12 604.597C463.925 606.045 464.323 607.712 464.313 609.597C464.323 611.481 463.897 613.162 463.035 614.639C462.183 616.116 460.999 617.281 459.484 618.134C457.978 618.976 456.25 619.398 454.299 619.398Z" fill="#F7F7F7"/>
<path d="M391.815 649V647.409L396.737 642.31C397.263 641.756 397.696 641.27 398.037 640.854C398.382 640.432 398.64 640.032 398.811 639.653C398.981 639.275 399.067 638.872 399.067 638.446C399.067 637.963 398.953 637.546 398.726 637.196C398.498 636.841 398.188 636.569 397.795 636.379C397.402 636.185 396.96 636.088 396.467 636.088C395.946 636.088 395.492 636.195 395.104 636.408C394.715 636.621 394.417 636.921 394.209 637.31C394 637.698 393.896 638.152 393.896 638.673H391.801C391.801 637.788 392.005 637.014 392.412 636.351C392.819 635.688 393.378 635.174 394.088 634.81C394.798 634.44 395.605 634.256 396.51 634.256C397.424 634.256 398.229 634.438 398.925 634.803C399.625 635.162 400.172 635.655 400.565 636.28C400.958 636.9 401.155 637.601 401.155 638.382C401.155 638.922 401.053 639.45 400.849 639.966C400.65 640.482 400.302 641.057 399.805 641.692C399.308 642.321 398.617 643.086 397.731 643.986L394.841 647.011V647.118H401.389V649H391.815ZM409.145 649.241C408.023 649.237 407.064 648.941 406.268 648.354C405.473 647.767 404.864 646.912 404.443 645.79C404.022 644.668 403.811 643.316 403.811 641.734C403.811 640.158 404.022 638.811 404.443 637.693C404.869 636.576 405.48 635.723 406.275 635.136C407.076 634.549 408.032 634.256 409.145 634.256C410.257 634.256 411.211 634.552 412.007 635.143C412.802 635.731 413.411 636.583 413.832 637.7C414.258 638.813 414.471 640.158 414.471 641.734C414.471 643.321 414.261 644.675 413.839 645.797C413.418 646.914 412.809 647.769 412.014 648.361C411.219 648.948 410.262 649.241 409.145 649.241ZM409.145 647.345C410.13 647.345 410.899 646.865 411.453 645.903C412.012 644.942 412.291 643.553 412.291 641.734C412.291 640.527 412.163 639.507 411.907 638.673C411.657 637.835 411.294 637.201 410.821 636.77C410.352 636.334 409.793 636.116 409.145 636.116C408.165 636.116 407.395 636.599 406.836 637.565C406.278 638.531 405.996 639.921 405.991 641.734C405.991 642.946 406.117 643.972 406.368 644.81C406.623 645.643 406.986 646.275 407.454 646.706C407.923 647.132 408.487 647.345 409.145 647.345ZM417.891 649.135C417.503 649.135 417.169 648.998 416.89 648.723C416.61 648.444 416.471 648.107 416.471 647.714C416.471 647.326 416.61 646.995 416.89 646.72C417.169 646.441 417.503 646.301 417.891 646.301C418.279 646.301 418.613 646.441 418.893 646.72C419.172 646.995 419.312 647.326 419.312 647.714C419.312 647.975 419.245 648.214 419.113 648.432C418.985 648.645 418.814 648.815 418.601 648.943C418.388 649.071 418.152 649.135 417.891 649.135ZM426.664 649.241C425.542 649.237 424.583 648.941 423.788 648.354C422.992 647.767 422.384 646.912 421.963 645.79C421.541 644.668 421.33 643.316 421.33 641.734C421.33 640.158 421.541 638.811 421.963 637.693C422.389 636.576 422.999 635.723 423.795 635.136C424.595 634.549 425.552 634.256 426.664 634.256C427.777 634.256 428.731 634.552 429.526 635.143C430.322 635.731 430.93 636.583 431.352 637.7C431.778 638.813 431.991 640.158 431.991 641.734C431.991 643.321 431.78 644.675 431.359 645.797C430.937 646.914 430.329 647.769 429.534 648.361C428.738 648.948 427.782 649.241 426.664 649.241ZM426.664 647.345C427.649 647.345 428.419 646.865 428.972 645.903C429.531 644.942 429.811 643.553 429.811 641.734C429.811 640.527 429.683 639.507 429.427 638.673C429.176 637.835 428.814 637.201 428.34 636.77C427.872 636.334 427.313 636.116 426.664 636.116C425.684 636.116 424.915 636.599 424.356 637.565C423.797 638.531 423.516 639.921 423.511 641.734C423.511 642.946 423.636 643.972 423.887 644.81C424.143 645.643 424.505 646.275 424.974 646.706C425.443 647.132 426.006 647.345 426.664 647.345ZM439.574 649.241C438.452 649.237 437.493 648.941 436.698 648.354C435.903 647.767 435.294 646.912 434.873 645.79C434.451 644.668 434.241 643.316 434.241 641.734C434.241 640.158 434.451 638.811 434.873 637.693C435.299 636.576 435.91 635.723 436.705 635.136C437.505 634.549 438.462 634.256 439.574 634.256C440.687 634.256 441.641 634.552 442.437 635.143C443.232 635.731 443.84 636.583 444.262 637.7C444.688 638.813 444.901 640.158 444.901 641.734C444.901 643.321 444.69 644.675 444.269 645.797C443.848 646.914 443.239 647.769 442.444 648.361C441.648 648.948 440.692 649.241 439.574 649.241ZM439.574 647.345C440.559 647.345 441.329 646.865 441.883 645.903C442.441 644.942 442.721 643.553 442.721 641.734C442.721 640.527 442.593 639.507 442.337 638.673C442.086 637.835 441.724 637.201 441.251 636.77C440.782 636.334 440.223 636.116 439.574 636.116C438.594 636.116 437.825 636.599 437.266 637.565C436.707 638.531 436.426 639.921 436.421 641.734C436.421 642.946 436.546 643.972 436.797 644.81C437.053 645.643 437.415 646.275 437.884 646.706C438.353 647.132 438.916 647.345 439.574 647.345ZM455.013 646.273V645.506C455.013 644.956 455.127 644.455 455.354 644C455.586 643.541 455.922 643.174 456.362 642.899C456.807 642.62 457.345 642.48 457.975 642.48C458.619 642.48 459.158 642.617 459.594 642.892C460.03 643.167 460.359 643.534 460.581 643.993C460.808 644.452 460.922 644.956 460.922 645.506V646.273C460.922 646.822 460.808 647.326 460.581 647.786C460.354 648.24 460.02 648.607 459.58 648.886C459.144 649.161 458.609 649.298 457.975 649.298C457.335 649.298 456.796 649.161 456.355 648.886C455.915 648.607 455.581 648.24 455.354 647.786C455.127 647.326 455.013 646.822 455.013 646.273ZM456.668 645.506V646.273C456.668 646.68 456.765 647.049 456.959 647.381C457.153 647.712 457.492 647.878 457.975 647.878C458.453 647.878 458.787 647.712 458.976 647.381C459.165 647.049 459.26 646.68 459.26 646.273V645.506C459.26 645.098 459.168 644.729 458.983 644.398C458.803 644.066 458.467 643.901 457.975 643.901C457.501 643.901 457.165 644.066 456.966 644.398C456.767 644.729 456.668 645.098 456.668 645.506ZM447.698 637.949V637.182C447.698 636.633 447.811 636.128 448.039 635.669C448.271 635.21 448.607 634.843 449.047 634.568C449.492 634.294 450.03 634.156 450.659 634.156C451.303 634.156 451.843 634.294 452.279 634.568C452.714 634.843 453.043 635.21 453.266 635.669C453.488 636.128 453.6 636.633 453.6 637.182V637.949C453.6 638.498 453.486 639.002 453.259 639.462C453.036 639.916 452.705 640.283 452.264 640.562C451.829 640.837 451.294 640.974 450.659 640.974C450.015 640.974 449.473 640.837 449.033 640.562C448.597 640.283 448.266 639.916 448.039 639.462C447.811 639.002 447.698 638.498 447.698 637.949ZM449.36 637.182V637.949C449.36 638.356 449.454 638.725 449.644 639.057C449.838 639.388 450.176 639.554 450.659 639.554C451.133 639.554 451.464 639.388 451.654 639.057C451.848 638.725 451.945 638.356 451.945 637.949V637.182C451.945 636.775 451.852 636.405 451.668 636.074C451.483 635.742 451.147 635.577 450.659 635.577C450.186 635.577 449.85 635.742 449.651 636.074C449.457 636.405 449.36 636.775 449.36 637.182ZM448.372 649L458.372 634.455H460.07L450.07 649H448.372Z" fill="#F7F7F7"/>
<rect x="390" y="506" width="172" height="47" rx="10" fill="url(#paint0_linear_54_7)"/>
<path d="M439.541 524.92V535H438.708C438.582 535 438.475 534.979 438.386 534.937C438.297 534.89 438.213 534.816 438.134 534.713L432.597 527.601C432.611 527.736 432.62 527.872 432.625 528.007C432.634 528.138 432.639 528.259 432.639 528.371V535H431.197V524.92H432.051C432.121 524.92 432.179 524.925 432.226 524.934C432.277 524.939 432.324 524.95 432.366 524.969C432.408 524.988 432.448 525.016 432.485 525.053C432.522 525.09 432.562 525.137 432.604 525.193L438.148 532.312C438.134 532.167 438.122 532.025 438.113 531.885C438.108 531.745 438.106 531.614 438.106 531.493V524.92H439.541ZM449.636 533.677L449.629 535H443.343V524.92H449.629V526.243H444.988V529.281H448.698V530.562H444.988V533.677H449.636ZM466.061 524.92L462.924 535H461.447L459.081 527.762C459.053 527.683 459.025 527.596 458.997 527.503C458.974 527.41 458.951 527.309 458.927 527.202C458.904 527.309 458.878 527.41 458.85 527.503C458.827 527.596 458.801 527.683 458.773 527.762L456.386 535H454.909L451.773 524.92H453.145C453.285 524.92 453.402 524.955 453.495 525.025C453.593 525.09 453.659 525.181 453.691 525.298L455.581 531.759C455.619 531.899 455.654 532.051 455.686 532.214C455.719 532.377 455.752 532.548 455.784 532.725C455.817 532.548 455.852 532.377 455.889 532.214C455.931 532.046 455.976 531.894 456.022 531.759L458.185 525.298C458.218 525.205 458.283 525.118 458.381 525.039C458.479 524.96 458.596 524.92 458.731 524.92H459.207C459.352 524.92 459.469 524.957 459.558 525.032C459.646 525.102 459.714 525.191 459.76 525.298L461.917 531.759C461.963 531.894 462.005 532.041 462.043 532.2C462.084 532.354 462.122 532.517 462.154 532.69C462.187 532.517 462.217 532.354 462.245 532.2C462.278 532.041 462.313 531.894 462.35 531.759L464.233 525.298C464.262 525.195 464.324 525.107 464.422 525.032C464.525 524.957 464.644 524.92 464.779 524.92H466.061ZM479.398 533.628V535H473.574V524.92H475.212V533.628H479.398ZM488.5 533.677L488.493 535H482.207V524.92H488.493V526.243H483.852V529.281H487.562V530.562H483.852V533.677H488.5ZM497.007 531.22L495.621 527.538C495.509 527.253 495.395 526.892 495.278 526.453C495.227 526.672 495.171 526.875 495.11 527.062C495.05 527.244 494.994 527.405 494.942 527.545L493.556 531.22H497.007ZM500.108 535H498.841C498.697 535 498.58 534.965 498.491 534.895C498.403 534.82 498.335 534.729 498.288 534.622L497.448 532.396H493.108L492.268 534.622C492.231 534.715 492.166 534.802 492.072 534.881C491.979 534.96 491.862 535 491.722 535H490.455L494.452 524.92H496.111L500.108 535ZM511.533 529.96C511.533 530.707 511.411 531.39 511.169 532.011C510.926 532.627 510.583 533.157 510.14 533.6C509.701 534.043 509.171 534.389 508.551 534.636C507.935 534.879 507.249 535 506.493 535H502.685V524.92H506.493C507.249 524.92 507.935 525.044 508.551 525.291C509.171 525.534 509.701 525.877 510.14 526.32C510.583 526.763 510.926 527.295 511.169 527.916C511.411 528.532 511.533 529.213 511.533 529.96ZM509.86 529.96C509.86 529.381 509.78 528.861 509.622 528.399C509.468 527.937 509.244 527.547 508.95 527.23C508.66 526.913 508.308 526.67 507.893 526.502C507.477 526.329 507.011 526.243 506.493 526.243H504.33V533.677H506.493C507.011 533.677 507.477 533.593 507.893 533.425C508.308 533.257 508.66 533.014 508.95 532.697C509.244 532.375 509.468 531.985 509.622 531.528C509.78 531.066 509.86 530.543 509.86 529.96ZM520.006 526.642C519.955 526.726 519.901 526.789 519.845 526.831C519.789 526.868 519.719 526.887 519.635 526.887C519.546 526.887 519.446 526.85 519.334 526.775C519.227 526.7 519.091 526.619 518.928 526.53C518.769 526.437 518.58 526.353 518.361 526.278C518.142 526.199 517.88 526.159 517.577 526.159C517.297 526.159 517.05 526.194 516.835 526.264C516.625 526.334 516.448 526.432 516.303 526.558C516.158 526.684 516.049 526.833 515.974 527.006C515.904 527.174 515.869 527.358 515.869 527.559C515.869 527.816 515.937 528.03 516.072 528.203C516.207 528.371 516.385 528.516 516.604 528.637C516.828 528.758 517.082 528.866 517.367 528.959C517.652 529.048 517.941 529.143 518.235 529.246C518.534 529.349 518.825 529.465 519.11 529.596C519.395 529.727 519.647 529.892 519.866 530.093C520.09 530.294 520.27 530.539 520.405 530.828C520.54 531.117 520.608 531.47 520.608 531.885C520.608 532.333 520.531 532.753 520.377 533.145C520.223 533.537 519.999 533.88 519.705 534.174C519.416 534.463 519.056 534.692 518.627 534.86C518.202 535.028 517.717 535.112 517.171 535.112C516.849 535.112 516.534 535.079 516.226 535.014C515.923 534.953 515.631 534.867 515.351 534.755C515.076 534.638 514.817 534.498 514.574 534.335C514.331 534.172 514.114 533.99 513.923 533.789L514.399 533.005C514.441 532.94 514.495 532.888 514.56 532.851C514.625 532.814 514.698 532.795 514.777 532.795C514.884 532.795 515.003 532.846 515.134 532.949C515.265 533.047 515.421 533.157 515.603 533.278C515.79 533.395 516.014 533.504 516.275 533.607C516.536 533.705 516.849 533.754 517.213 533.754C517.806 533.754 518.263 533.609 518.585 533.32C518.912 533.031 519.075 532.632 519.075 532.123C519.075 531.838 519.007 531.607 518.872 531.43C518.737 531.248 518.557 531.096 518.333 530.975C518.114 530.854 517.862 530.751 517.577 530.667C517.292 530.583 517.003 530.494 516.709 530.401C516.415 530.303 516.126 530.191 515.841 530.065C515.556 529.934 515.302 529.766 515.078 529.561C514.859 529.351 514.681 529.094 514.546 528.791C514.411 528.483 514.343 528.1 514.343 527.643C514.343 527.279 514.413 526.927 514.553 526.586C514.698 526.245 514.905 525.944 515.176 525.683C515.451 525.417 515.79 525.205 516.191 525.046C516.592 524.887 517.05 524.808 517.563 524.808C518.142 524.808 518.671 524.899 519.152 525.081C519.637 525.263 520.055 525.522 520.405 525.858L520.006 526.642Z" fill="#111111"/>
<path d="M565.5 618.5L568.052 618.899C575.674 620.09 582.95 615.284 584.846 607.806V607.806C588.654 592.793 609.977 592.771 613.814 607.778L615.21 613.235C618.702 626.888 636.659 630.053 644.607 618.416L659.472 596.654C660.273 595.48 660.984 594.247 661.599 592.965L676.346 562.205C677.096 560.641 678.018 559.165 679.094 557.804L687.525 547.154C695.168 537.498 710.436 539.948 714.675 551.51V551.51C716.573 556.688 721.04 560.496 726.452 561.552L742.392 564.663C745.645 565.297 748.402 567.44 749.82 570.436V570.436C754.273 579.84 768.241 577.64 769.586 567.322L776.785 512.101C777.697 505.105 782.379 499.177 788.972 496.667V496.667C802.052 491.689 815.884 501.955 814.907 515.916L814.702 518.849C813.247 539.637 839.655 549.667 852.368 533.155L867.5 513.5" stroke="url(#paint1_linear_54_7)" stroke-width="6"/>
<g filter="url(#filter0_d_54_7)">
<rect x="144" y="144" width="661" height="337" rx="20" fill="#2A2C2B"/>
</g>
<path d="M211.305 205.551C211.153 204.206 210.528 203.165 209.43 202.426C208.331 201.678 206.949 201.304 205.282 201.304C204.089 201.304 203.057 201.493 202.185 201.872C201.314 202.241 200.637 202.753 200.154 203.406C199.681 204.05 199.444 204.784 199.444 205.608C199.444 206.299 199.605 206.896 199.927 207.398C200.258 207.9 200.689 208.321 201.219 208.662C201.759 208.993 202.337 209.273 202.952 209.5C203.568 209.718 204.16 209.898 204.728 210.04L207.569 210.778C208.497 211.006 209.449 211.313 210.424 211.702C211.399 212.09 212.304 212.601 213.137 213.236C213.97 213.87 214.643 214.656 215.154 215.594C215.675 216.531 215.935 217.653 215.935 218.96C215.935 220.608 215.509 222.071 214.657 223.349C213.814 224.628 212.588 225.636 210.978 226.375C209.378 227.114 207.441 227.483 205.168 227.483C202.99 227.483 201.106 227.137 199.515 226.446C197.924 225.755 196.679 224.775 195.779 223.506C194.879 222.227 194.382 220.712 194.288 218.96H198.691C198.776 220.011 199.117 220.887 199.714 221.588C200.32 222.279 201.092 222.795 202.029 223.136C202.976 223.468 204.013 223.634 205.14 223.634C206.38 223.634 207.484 223.439 208.45 223.051C209.425 222.653 210.192 222.104 210.751 221.403C211.309 220.693 211.589 219.865 211.589 218.918C211.589 218.056 211.343 217.35 210.85 216.801C210.367 216.252 209.709 215.797 208.876 215.438C208.052 215.078 207.119 214.76 206.077 214.486L202.64 213.548C200.31 212.914 198.464 211.981 197.1 210.75C195.746 209.519 195.069 207.89 195.069 205.864C195.069 204.187 195.523 202.724 196.433 201.474C197.342 200.224 198.573 199.254 200.126 198.562C201.679 197.862 203.431 197.511 205.381 197.511C207.351 197.511 209.089 197.857 210.594 198.548C212.11 199.24 213.303 200.191 214.174 201.403C215.045 202.606 215.5 203.989 215.538 205.551H211.305ZM231.024 205.182V208.591H219.107V205.182H231.024ZM222.303 199.955H226.55V220.594C226.55 221.418 226.673 222.038 226.919 222.455C227.165 222.862 227.482 223.141 227.871 223.293C228.268 223.435 228.699 223.506 229.163 223.506C229.504 223.506 229.803 223.482 230.058 223.435C230.314 223.387 230.513 223.349 230.655 223.321L231.422 226.83C231.176 226.924 230.825 227.019 230.371 227.114C229.916 227.218 229.348 227.275 228.666 227.284C227.549 227.303 226.507 227.104 225.541 226.688C224.575 226.271 223.794 225.627 223.197 224.756C222.601 223.884 222.303 222.791 222.303 221.474V199.955ZM242.072 227.483C240.689 227.483 239.439 227.227 238.322 226.716C237.204 226.195 236.319 225.442 235.665 224.457C235.022 223.473 234.7 222.265 234.7 220.835C234.7 219.604 234.936 218.591 235.41 217.795C235.883 217 236.522 216.37 237.327 215.906C238.132 215.442 239.032 215.092 240.026 214.855C241.021 214.618 242.034 214.438 243.066 214.315C244.373 214.164 245.433 214.041 246.248 213.946C247.062 213.842 247.654 213.676 248.023 213.449C248.393 213.222 248.577 212.852 248.577 212.341V212.241C248.577 211.001 248.227 210.04 247.526 209.358C246.835 208.676 245.803 208.335 244.43 208.335C243 208.335 241.873 208.652 241.049 209.287C240.235 209.912 239.671 210.608 239.359 211.375L235.367 210.466C235.841 209.14 236.532 208.07 237.441 207.256C238.36 206.432 239.415 205.835 240.609 205.466C241.802 205.087 243.057 204.898 244.373 204.898C245.244 204.898 246.167 205.002 247.143 205.21C248.128 205.409 249.046 205.778 249.898 206.318C250.76 206.858 251.466 207.63 252.015 208.634C252.564 209.628 252.839 210.92 252.839 212.511V227H248.691V224.017H248.521C248.246 224.566 247.834 225.106 247.285 225.636C246.736 226.167 246.03 226.607 245.168 226.957C244.307 227.308 243.274 227.483 242.072 227.483ZM242.995 224.074C244.169 224.074 245.173 223.842 246.006 223.378C246.849 222.914 247.488 222.308 247.924 221.56C248.369 220.802 248.592 219.992 248.592 219.131V216.318C248.44 216.47 248.147 216.612 247.711 216.744C247.285 216.867 246.797 216.976 246.248 217.071C245.699 217.156 245.164 217.237 244.643 217.312C244.122 217.379 243.686 217.436 243.336 217.483C242.512 217.587 241.759 217.762 241.077 218.009C240.405 218.255 239.865 218.61 239.458 219.074C239.06 219.528 238.862 220.134 238.862 220.892C238.862 221.943 239.25 222.739 240.026 223.278C240.803 223.809 241.792 224.074 242.995 224.074ZM268.68 205.182V208.591H256.763V205.182H268.68ZM259.959 199.955H264.206V220.594C264.206 221.418 264.329 222.038 264.575 222.455C264.821 222.862 265.139 223.141 265.527 223.293C265.925 223.435 266.356 223.506 266.82 223.506C267.161 223.506 267.459 223.482 267.714 223.435C267.97 223.387 268.169 223.349 268.311 223.321L269.078 226.83C268.832 226.924 268.482 227.019 268.027 227.114C267.572 227.218 267.004 227.275 266.322 227.284C265.205 227.303 264.163 227.104 263.197 226.688C262.232 226.271 261.45 225.627 260.854 224.756C260.257 223.884 259.959 222.791 259.959 221.474V199.955ZM287.2 217.952V205.182H291.461V227H287.285V223.222H287.058C286.556 224.386 285.751 225.357 284.643 226.134C283.544 226.901 282.176 227.284 280.538 227.284C279.136 227.284 277.896 226.976 276.816 226.361C275.746 225.736 274.903 224.812 274.288 223.591C273.682 222.369 273.379 220.859 273.379 219.06V205.182H277.626V218.548C277.626 220.035 278.038 221.219 278.862 222.099C279.685 222.98 280.755 223.42 282.072 223.42C282.867 223.42 283.658 223.222 284.444 222.824C285.239 222.426 285.897 221.825 286.418 221.02C286.949 220.215 287.209 219.192 287.2 217.952ZM313.517 210.509L309.668 211.19C309.507 210.698 309.251 210.229 308.901 209.784C308.56 209.339 308.096 208.974 307.509 208.69C306.921 208.406 306.188 208.264 305.307 208.264C304.104 208.264 303.1 208.534 302.295 209.074C301.491 209.604 301.088 210.291 301.088 211.134C301.088 211.863 301.358 212.45 301.898 212.895C302.438 213.34 303.309 213.705 304.511 213.989L307.977 214.784C309.985 215.248 311.481 215.963 312.466 216.929C313.451 217.895 313.943 219.15 313.943 220.693C313.943 222 313.564 223.165 312.807 224.188C312.059 225.201 311.012 225.996 309.668 226.574C308.332 227.152 306.784 227.44 305.023 227.44C302.58 227.44 300.586 226.92 299.043 225.878C297.499 224.827 296.552 223.335 296.202 221.403L300.307 220.778C300.563 221.848 301.088 222.658 301.884 223.207C302.679 223.747 303.716 224.017 304.994 224.017C306.386 224.017 307.499 223.728 308.332 223.151C309.166 222.563 309.582 221.848 309.582 221.006C309.582 220.324 309.327 219.751 308.815 219.287C308.313 218.823 307.542 218.473 306.5 218.236L302.807 217.426C300.771 216.962 299.265 216.223 298.29 215.21C297.324 214.197 296.841 212.914 296.841 211.361C296.841 210.073 297.201 208.946 297.92 207.98C298.64 207.014 299.634 206.261 300.903 205.722C302.172 205.172 303.626 204.898 305.264 204.898C307.622 204.898 309.478 205.409 310.832 206.432C312.187 207.445 313.081 208.804 313.517 210.509Z" fill="#F7F7F7"/>
<path d="M484.13 243V240.614L491.513 232.964C492.301 232.134 492.951 231.406 493.462 230.781C493.981 230.148 494.368 229.548 494.624 228.98C494.879 228.412 495.007 227.808 495.007 227.169C495.007 226.445 494.837 225.82 494.496 225.294C494.155 224.761 493.69 224.353 493.1 224.069C492.511 223.778 491.847 223.632 491.108 223.632C490.327 223.632 489.645 223.792 489.062 224.112C488.48 224.431 488.033 224.882 487.72 225.464C487.408 226.047 487.251 226.729 487.251 227.51H484.109C484.109 226.182 484.414 225.021 485.025 224.026C485.636 223.032 486.474 222.261 487.539 221.714C488.604 221.161 489.815 220.884 491.172 220.884C492.543 220.884 493.75 221.157 494.794 221.704C495.845 222.244 496.665 222.982 497.255 223.92C497.844 224.85 498.139 225.901 498.139 227.073C498.139 227.883 497.987 228.675 497.681 229.449C497.383 230.223 496.861 231.086 496.115 232.038C495.369 232.982 494.332 234.129 493.004 235.479L488.668 240.017V240.177H498.491V243H484.13ZM502.528 243V240.614L509.911 232.964C510.7 232.134 511.349 231.406 511.861 230.781C512.379 230.148 512.766 229.548 513.022 228.98C513.278 228.412 513.406 227.808 513.406 227.169C513.406 226.445 513.235 225.82 512.894 225.294C512.553 224.761 512.088 224.353 511.499 224.069C510.909 223.778 510.245 223.632 509.506 223.632C508.725 223.632 508.043 223.792 507.461 224.112C506.879 224.431 506.431 224.882 506.119 225.464C505.806 226.047 505.65 226.729 505.65 227.51H502.507C502.507 226.182 502.813 225.021 503.423 224.026C504.034 223.032 504.872 222.261 505.938 221.714C507.003 221.161 508.214 220.884 509.57 220.884C510.941 220.884 512.148 221.157 513.192 221.704C514.244 222.244 515.064 222.982 515.653 223.92C516.243 224.85 516.538 225.901 516.538 227.073C516.538 227.883 516.385 228.675 516.08 229.449C515.781 230.223 515.259 231.086 514.513 232.038C513.768 232.982 512.731 234.129 511.403 235.479L507.067 240.017V240.177H516.889V243H502.528ZM523.068 243.202C522.486 243.202 521.985 242.996 521.566 242.585C521.147 242.165 520.938 241.661 520.938 241.072C520.938 240.489 521.147 239.992 521.566 239.58C521.985 239.161 522.486 238.952 523.068 238.952C523.651 238.952 524.151 239.161 524.57 239.58C524.989 239.992 525.199 240.489 525.199 241.072C525.199 241.462 525.099 241.821 524.901 242.148C524.709 242.467 524.453 242.723 524.134 242.915C523.814 243.107 523.459 243.202 523.068 243.202ZM529.423 243V240.614L536.806 232.964C537.594 232.134 538.244 231.406 538.755 230.781C539.274 230.148 539.661 229.548 539.917 228.98C540.172 228.412 540.3 227.808 540.3 227.169C540.3 226.445 540.13 225.82 539.789 225.294C539.448 224.761 538.983 224.353 538.393 224.069C537.804 223.778 537.14 223.632 536.401 223.632C535.62 223.632 534.938 223.792 534.355 224.112C533.773 224.431 533.326 224.882 533.013 225.464C532.701 226.047 532.544 226.729 532.544 227.51H529.402C529.402 226.182 529.707 225.021 530.318 224.026C530.929 223.032 531.767 222.261 532.832 221.714C533.897 221.161 535.108 220.884 536.465 220.884C537.836 220.884 539.043 221.157 540.087 221.704C541.138 222.244 541.958 222.982 542.548 223.92C543.137 224.85 543.432 225.901 543.432 227.073C543.432 227.883 543.279 228.675 542.974 229.449C542.676 230.223 542.154 231.086 541.408 232.038C540.662 232.982 539.625 234.129 538.297 235.479L533.961 240.017V240.177H543.784V243H529.423ZM562.494 245.727V218.455H564.241V245.727H562.494ZM567.959 226.913C567.845 225.905 567.377 225.124 566.553 224.57C565.729 224.009 564.692 223.728 563.442 223.728C562.547 223.728 561.773 223.87 561.119 224.154C560.466 224.431 559.958 224.815 559.596 225.305C559.241 225.788 559.063 226.338 559.063 226.956C559.063 227.474 559.184 227.922 559.426 228.298C559.674 228.675 559.997 228.991 560.395 229.246C560.8 229.495 561.233 229.705 561.695 229.875C562.156 230.038 562.6 230.173 563.026 230.28L565.157 230.834C565.853 231.004 566.567 231.235 567.298 231.526C568.03 231.817 568.708 232.201 569.333 232.677C569.958 233.153 570.463 233.742 570.846 234.445C571.237 235.148 571.432 235.99 571.432 236.97C571.432 238.206 571.112 239.303 570.473 240.262C569.841 241.221 568.921 241.977 567.714 242.531C566.514 243.085 565.061 243.362 563.357 243.362C561.723 243.362 560.31 243.103 559.117 242.585C557.923 242.066 556.99 241.331 556.315 240.379C555.64 239.42 555.267 238.284 555.196 236.97H558.499C558.563 237.759 558.818 238.415 559.266 238.941C559.72 239.46 560.299 239.847 561.002 240.102C561.713 240.351 562.49 240.475 563.335 240.475C564.266 240.475 565.093 240.33 565.818 240.038C566.549 239.74 567.124 239.328 567.544 238.803C567.963 238.27 568.172 237.648 568.172 236.938C568.172 236.292 567.987 235.763 567.618 235.351C567.256 234.939 566.762 234.598 566.137 234.328C565.519 234.058 564.82 233.82 564.039 233.614L561.46 232.911C559.713 232.435 558.328 231.736 557.306 230.812C556.29 229.889 555.782 228.668 555.782 227.148C555.782 225.891 556.123 224.793 556.805 223.856C557.487 222.918 558.41 222.19 559.575 221.672C560.74 221.146 562.053 220.884 563.517 220.884C564.994 220.884 566.297 221.143 567.426 221.661C568.563 222.18 569.458 222.893 570.111 223.803C570.764 224.705 571.105 225.741 571.134 226.913H567.959Z" fill="#F7F7F7"/>
<path d="M209.672 429.276C209.596 428.603 209.284 428.082 208.734 427.713C208.185 427.339 207.494 427.152 206.661 427.152C206.064 427.152 205.548 427.247 205.112 427.436C204.677 427.621 204.338 427.876 204.097 428.203C203.86 428.525 203.741 428.892 203.741 429.304C203.741 429.65 203.822 429.948 203.983 430.199C204.149 430.45 204.364 430.661 204.629 430.831C204.899 430.997 205.188 431.136 205.496 431.25C205.804 431.359 206.099 431.449 206.384 431.52L207.804 431.889C208.268 432.003 208.744 432.157 209.232 432.351C209.719 432.545 210.171 432.801 210.588 433.118C211.005 433.435 211.341 433.828 211.597 434.297C211.857 434.766 211.987 435.327 211.987 435.98C211.987 436.804 211.774 437.536 211.348 438.175C210.927 438.814 210.313 439.318 209.509 439.688C208.708 440.057 207.74 440.241 206.604 440.241C205.515 440.241 204.572 440.069 203.777 439.723C202.982 439.377 202.359 438.887 201.909 438.253C201.459 437.614 201.211 436.856 201.163 435.98H203.365C203.408 436.506 203.578 436.944 203.876 437.294C204.179 437.64 204.565 437.898 205.034 438.068C205.508 438.234 206.026 438.317 206.589 438.317C207.21 438.317 207.761 438.22 208.244 438.026C208.732 437.827 209.116 437.552 209.395 437.202C209.674 436.847 209.814 436.432 209.814 435.959C209.814 435.528 209.691 435.175 209.445 434.901C209.203 434.626 208.874 434.399 208.457 434.219C208.045 434.039 207.579 433.88 207.058 433.743L205.339 433.274C204.175 432.957 203.251 432.491 202.57 431.875C201.893 431.259 201.554 430.445 201.554 429.432C201.554 428.594 201.781 427.862 202.236 427.237C202.69 426.612 203.306 426.127 204.082 425.781C204.859 425.431 205.735 425.256 206.71 425.256C207.695 425.256 208.564 425.429 209.317 425.774C210.074 426.12 210.671 426.596 211.107 427.202C211.542 427.803 211.769 428.494 211.788 429.276H209.672ZM221.35 435.476V429.091H223.48V440H221.392V438.111H221.279C221.028 438.693 220.625 439.179 220.071 439.567C219.522 439.95 218.838 440.142 218.019 440.142C217.318 440.142 216.698 439.988 216.158 439.68C215.623 439.368 215.202 438.906 214.894 438.295C214.591 437.685 214.439 436.929 214.439 436.03V429.091H216.563V435.774C216.563 436.518 216.769 437.109 217.181 437.55C217.593 437.99 218.128 438.21 218.786 438.21C219.184 438.21 219.579 438.111 219.972 437.912C220.37 437.713 220.699 437.412 220.959 437.01C221.224 436.607 221.355 436.096 221.35 435.476ZM228.457 433.523V440H226.334V429.091H228.372V430.866H228.507C228.758 430.289 229.151 429.825 229.686 429.474C230.226 429.124 230.905 428.949 231.724 428.949C232.468 428.949 233.119 429.105 233.678 429.418C234.236 429.725 234.67 430.185 234.977 430.795C235.285 431.406 235.439 432.161 235.439 433.061V440H233.315V433.317C233.315 432.526 233.109 431.908 232.697 431.463C232.286 431.013 231.72 430.788 231 430.788C230.508 430.788 230.07 430.895 229.686 431.108C229.307 431.321 229.007 431.634 228.784 432.045C228.566 432.453 228.457 432.945 228.457 433.523Z" fill="#F7F7F7"/>
<path d="M304.621 425.455H307.285L311.915 436.761H312.086L316.717 425.455H319.38V440H317.292V429.474H317.157L312.867 439.979H311.134L306.844 429.467H306.71V440H304.621V425.455ZM326.995 440.22C325.973 440.22 325.08 439.986 324.318 439.517C323.556 439.048 322.964 438.393 322.542 437.55C322.121 436.707 321.91 435.722 321.91 434.595C321.91 433.464 322.121 432.474 322.542 431.626C322.964 430.779 323.556 430.121 324.318 429.652C325.08 429.183 325.973 428.949 326.995 428.949C328.018 428.949 328.911 429.183 329.673 429.652C330.435 430.121 331.027 430.779 331.449 431.626C331.87 432.474 332.081 433.464 332.081 434.595C332.081 435.722 331.87 436.707 331.449 437.55C331.027 438.393 330.435 439.048 329.673 439.517C328.911 439.986 328.018 440.22 326.995 440.22ZM327.002 438.438C327.665 438.438 328.215 438.262 328.65 437.912C329.086 437.562 329.408 437.095 329.616 436.513C329.829 435.93 329.936 435.289 329.936 434.588C329.936 433.892 329.829 433.253 329.616 432.67C329.408 432.083 329.086 431.612 328.65 431.257C328.215 430.902 327.665 430.724 327.002 430.724C326.335 430.724 325.781 430.902 325.341 431.257C324.905 431.612 324.581 432.083 324.368 432.67C324.159 433.253 324.055 433.892 324.055 434.588C324.055 435.289 324.159 435.93 324.368 436.513C324.581 437.095 324.905 437.562 325.341 437.912C325.781 438.262 326.335 438.438 327.002 438.438ZM336.575 433.523V440H334.451V429.091H336.489V430.866H336.624C336.875 430.289 337.268 429.825 337.803 429.474C338.343 429.124 339.022 428.949 339.842 428.949C340.585 428.949 341.236 429.105 341.795 429.418C342.353 429.725 342.787 430.185 343.094 430.795C343.402 431.406 343.556 432.161 343.556 433.061V440H341.433V433.317C341.433 432.526 341.227 431.908 340.815 431.463C340.403 431.013 339.837 430.788 339.117 430.788C338.625 430.788 338.187 430.895 337.803 431.108C337.424 431.321 337.124 431.634 336.901 432.045C336.683 432.453 336.575 432.945 336.575 433.523Z" fill="#F7F7F7"/>
<path d="M412.293 427.344V425.455H423.55V427.344H419.012V440H416.824V427.344H412.293ZM431.293 435.476V429.091H433.424V440H431.336V438.111H431.222C430.971 438.693 430.569 439.179 430.015 439.567C429.465 439.95 428.781 440.142 427.962 440.142C427.261 440.142 426.641 439.988 426.101 439.68C425.566 439.368 425.145 438.906 424.837 438.295C424.534 437.685 424.383 436.929 424.383 436.03V429.091H426.506V435.774C426.506 436.518 426.712 437.109 427.124 437.55C427.536 437.99 428.071 438.21 428.729 438.21C429.127 438.21 429.522 438.111 429.915 437.912C430.313 437.713 430.642 437.412 430.903 437.01C431.168 436.607 431.298 436.096 431.293 435.476ZM440.979 440.22C439.904 440.22 438.978 439.991 438.202 439.531C437.43 439.067 436.834 438.416 436.412 437.578C435.995 436.735 435.787 435.748 435.787 434.616C435.787 433.499 435.995 432.514 436.412 431.662C436.834 430.81 437.421 430.144 438.173 429.666C438.931 429.188 439.816 428.949 440.83 428.949C441.445 428.949 442.042 429.051 442.619 429.254C443.197 429.458 443.716 429.777 444.175 430.213C444.634 430.649 444.996 431.214 445.262 431.911C445.527 432.602 445.659 433.442 445.659 434.432V435.185H436.987V433.594H443.578C443.578 433.035 443.465 432.54 443.237 432.109C443.01 431.674 442.691 431.33 442.279 431.08C441.871 430.829 441.393 430.703 440.844 430.703C440.247 430.703 439.727 430.85 439.281 431.143C438.841 431.432 438.5 431.811 438.259 432.28C438.022 432.744 437.904 433.248 437.904 433.793V435.036C437.904 435.765 438.031 436.385 438.287 436.896C438.548 437.408 438.91 437.798 439.374 438.068C439.838 438.333 440.38 438.466 441 438.466C441.403 438.466 441.77 438.409 442.101 438.295C442.432 438.177 442.719 438.002 442.96 437.77C443.202 437.538 443.387 437.251 443.514 436.911L445.524 437.273C445.363 437.865 445.075 438.383 444.658 438.828C444.246 439.268 443.727 439.612 443.102 439.858C442.482 440.099 441.774 440.22 440.979 440.22Z" fill="#F7F7F7"/>
<path d="M517.579 440L513.545 425.455H515.853L518.687 436.719H518.822L521.769 425.455H524.056L527.004 436.726H527.138L529.965 425.455H532.281L528.239 440H526.031L522.969 429.105H522.856L519.795 440H517.579ZM537.739 440.22C536.664 440.22 535.738 439.991 534.962 439.531C534.19 439.067 533.593 438.416 533.172 437.578C532.755 436.735 532.547 435.748 532.547 434.616C532.547 433.499 532.755 432.514 533.172 431.662C533.593 430.81 534.18 430.144 534.933 429.666C535.691 429.188 536.576 428.949 537.589 428.949C538.205 428.949 538.802 429.051 539.379 429.254C539.957 429.458 540.475 429.777 540.935 430.213C541.394 430.649 541.756 431.214 542.021 431.911C542.286 432.602 542.419 433.442 542.419 434.432V435.185H533.747V433.594H540.338C540.338 433.035 540.224 432.54 539.997 432.109C539.77 431.674 539.45 431.33 539.038 431.08C538.631 430.829 538.153 430.703 537.604 430.703C537.007 430.703 536.486 430.85 536.041 431.143C535.601 431.432 535.26 431.811 535.018 432.28C534.782 432.744 534.663 433.248 534.663 433.793V435.036C534.663 435.765 534.791 436.385 535.047 436.896C535.307 437.408 535.67 437.798 536.134 438.068C536.598 438.333 537.14 438.466 537.76 438.466C538.162 438.466 538.529 438.409 538.861 438.295C539.192 438.177 539.479 438.002 539.72 437.77C539.962 437.538 540.146 437.251 540.274 436.911L542.284 437.273C542.123 437.865 541.834 438.383 541.418 438.828C541.006 439.268 540.487 439.612 539.862 439.858C539.242 440.099 538.534 440.22 537.739 440.22ZM548.859 440.213C547.978 440.213 547.192 439.988 546.501 439.538C545.815 439.084 545.275 438.437 544.882 437.599C544.493 436.757 544.299 435.746 544.299 434.567C544.299 433.388 544.496 432.379 544.889 431.541C545.287 430.703 545.831 430.062 546.522 429.616C547.214 429.171 547.997 428.949 548.873 428.949C549.55 428.949 550.095 429.062 550.507 429.29C550.923 429.512 551.245 429.773 551.473 430.071C551.705 430.369 551.885 430.632 552.012 430.859H552.14V425.455H554.264V440H552.19V438.303H552.012C551.885 438.535 551.7 438.8 551.458 439.098C551.222 439.396 550.895 439.657 550.478 439.879C550.062 440.102 549.522 440.213 548.859 440.213ZM549.328 438.402C549.939 438.402 550.455 438.241 550.876 437.919C551.302 437.592 551.624 437.14 551.842 436.562C552.065 435.985 552.176 435.312 552.176 434.545C552.176 433.788 552.067 433.125 551.849 432.557C551.631 431.989 551.312 431.546 550.89 431.229C550.469 430.911 549.948 430.753 549.328 430.753C548.689 430.753 548.156 430.919 547.73 431.25C547.304 431.581 546.982 432.034 546.764 432.607C546.551 433.179 546.444 433.826 546.444 434.545C546.444 435.275 546.553 435.93 546.771 436.513C546.989 437.095 547.311 437.557 547.737 437.898C548.168 438.234 548.698 438.402 549.328 438.402Z" fill="#F7F7F7"/>
<path d="M622.904 427.344V425.455H634.161V427.344H629.623V440H627.435V427.344H622.904ZM638.602 433.523V440H636.478V425.455H638.574V430.866H638.708C638.964 430.279 639.355 429.813 639.88 429.467C640.406 429.122 641.092 428.949 641.94 428.949C642.688 428.949 643.342 429.103 643.9 429.411C644.464 429.718 644.899 430.178 645.207 430.788C645.52 431.394 645.676 432.152 645.676 433.061V440H643.552V433.317C643.552 432.517 643.346 431.896 642.934 431.456C642.522 431.011 641.949 430.788 641.216 430.788C640.714 430.788 640.264 430.895 639.866 431.108C639.473 431.321 639.163 431.634 638.936 432.045C638.713 432.453 638.602 432.945 638.602 433.523ZM655.42 435.476V429.091H657.551V440H655.463V438.111H655.349C655.098 438.693 654.696 439.179 654.142 439.567C653.592 439.95 652.908 440.142 652.089 440.142C651.388 440.142 650.768 439.988 650.228 439.68C649.693 439.368 649.272 438.906 648.964 438.295C648.661 437.685 648.51 436.929 648.51 436.03V429.091H650.633V435.774C650.633 436.518 650.839 437.109 651.251 437.55C651.663 437.99 652.198 438.21 652.856 438.21C653.254 438.21 653.649 438.111 654.042 437.912C654.44 437.713 654.769 437.412 655.029 437.01C655.295 436.607 655.425 436.096 655.42 435.476Z" fill="#F7F7F7"/>
<path d="M726.979 440V425.455H735.999V427.344H729.173V431.776H735.352V433.658H729.173V440H726.979ZM738.39 440V429.091H740.443V430.824H740.557C740.756 430.237 741.106 429.775 741.608 429.439C742.114 429.098 742.687 428.928 743.327 428.928C743.459 428.928 743.615 428.932 743.795 428.942C743.98 428.951 744.124 428.963 744.229 428.977V431.009C744.143 430.985 743.992 430.959 743.774 430.93C743.556 430.897 743.338 430.881 743.121 430.881C742.619 430.881 742.171 430.987 741.778 431.2C741.39 431.409 741.082 431.7 740.855 432.074C740.628 432.443 740.514 432.865 740.514 433.338V440H738.39ZM746.066 440V429.091H748.19V440H746.066ZM747.139 427.408C746.769 427.408 746.452 427.285 746.187 427.038C745.927 426.787 745.796 426.489 745.796 426.143C745.796 425.793 745.927 425.495 746.187 425.249C746.452 424.998 746.769 424.872 747.139 424.872C747.508 424.872 747.823 424.998 748.083 425.249C748.348 425.495 748.481 425.793 748.481 426.143C748.481 426.489 748.348 426.787 748.083 427.038C747.823 427.285 747.508 427.408 747.139 427.408Z" fill="#F7F7F7"/>
<path d="M144 303.5H171.306C182.409 303.5 193.153 307.431 201.635 314.595L233.945 341.888C253.44 358.356 282.513 356.259 299.442 337.164L328.07 304.875C343.538 287.428 369.458 283.959 388.97 296.725L416.782 314.921C435.519 327.18 460.302 324.519 476.009 308.562L507.546 276.525C526.879 256.884 558.885 258.017 576.782 278.975L578.075 280.489C598.639 304.571 636.651 301.838 653.558 275.061L684.778 225.616C701.436 199.234 738.704 196.108 759.524 219.346L789.161 252.424C793.195 256.927 798.955 259.5 805 259.5V259.5" stroke="url(#paint2_linear_54_7)" stroke-width="6"/>
<g filter="url(#filter1_d_54_7)">
<circle cx="527.5" cy="265.5" r="15.5" fill="#1B1B1B"/>
<circle cx="527.5" cy="265.5" r="14.5" stroke="#71D0C9" stroke-width="2"/>
</g>
<defs>
<filter id="filter0_d_54_7" x="0" y="0" width="949" height="625" filterUnits="userSpaceOnUse" color-interpolation-filters="sRGB">
<feFlood flood-opacity="0" result="BackgroundImageFix"/>
<feColorMatrix in="SourceAlpha" type="matrix" values="0 0 0 0 0 0 0 0 0 0 0 0 0 0 0 0 0 0 127 0" result="hardAlpha"/>
<feOffset/>
<feGaussianBlur stdDeviation="72"/>
<feComposite in2="hardAlpha" operator="out"/>
<feColorMatrix type="matrix" values="0 0 0 0 0 0 0 0 0 0 0 0 0 0 0 0 0 0 0.05 0"/>
<feBlend mode="normal" in2="BackgroundImageFix" result="effect1_dropShadow_54_7"/>
<feBlend mode="normal" in="SourceGraphic" in2="effect1_dropShadow_54_7" result="shape"/>
</filter>
<filter id="filter1_d_54_7" x="478" y="216" width="99" height="99" filterUnits="userSpaceOnUse" color-interpolation-filters="sRGB">
<feFlood flood-opacity="0" result="BackgroundImageFix"/>
<feColorMatrix in="SourceAlpha" type="matrix" values="0 0 0 0 0 0 0 0 0 0 0 0 0 0 0 0 0 0 127 0" result="hardAlpha"/>
<feOffset/>
<feGaussianBlur stdDeviation="17"/>
<feComposite in2="hardAlpha" operator="out"/>
<feColorMatrix type="matrix" values="0 0 0 0 1 0 0 0 0 1 0 0 0 0 1 0 0 0 0.15 0"/>
<feBlend mode="normal" in2="BackgroundImageFix" result="effect1_dropShadow_54_7"/>
<feBlend mode="normal" in="SourceGraphic" in2="effect1_dropShadow_54_7" result="shape"/>
</filter>
<linearGradient id="paint0_linear_54_7" x1="390" y1="553" x2="562" y2="553" gradientUnits="userSpaceOnUse">
<stop stop-color="#3FE8AB"/>
<stop offset="1" stop-color="#78CDCD"/>
</linearGradient>
<linearGradient id="paint1_linear_54_7" x1="460.541" y1="813.695" x2="832.427" y2="813.695" gradientUnits="userSpaceOnUse">
<stop stop-color="#3FE8AB"/>
<stop offset="1" stop-color="#78CDCD"/>
</linearGradient>
<linearGradient id="paint2_linear_54_7" x1="144" y1="368.794" x2="786" y2="368.794" gradientUnits="userSpaceOnUse">
<stop stop-color="#3FE8AB"/>
<stop offset="1" stop-color="#78CDCD"/>
</linearGradient>
</defs>
</svg>
