<svg width="691" height="691" viewBox="0 0 691 691" fill="none" xmlns="http://www.w3.org/2000/svg">
<circle opacity="0.96" cx="345.5" cy="345.5" r="306.5" fill="url(#paint0_linear_47_42)"/>
<circle opacity="0.2" cx="345.5" cy="345.5" r="342.5" stroke="#C5E6E4" stroke-width="6"/>
<rect x="237.5" y="125.5" width="216" height="439" rx="20.5" stroke="#151515" stroke-width="9"/>
<g filter="url(#filter0_d_47_42)">
<rect x="242" y="130" width="207" height="430" rx="16" fill="#2B2B2B"/>
</g>
<path d="M286 130H411V138C411 141.314 408.314 144 405 144H292C288.686 144 286 141.314 286 138V130Z" fill="#151515"/>
<rect x="334" y="135" width="28" height="1" rx="0.5" fill="#525252"/>
<path d="M330.255 319.068H318.91C318.473 316.66 317.661 314.541 316.473 312.711C315.285 310.881 313.831 309.328 312.11 308.051C310.388 306.775 308.461 305.812 306.328 305.162C304.219 304.511 301.976 304.186 299.6 304.186C295.309 304.186 291.467 305.258 288.073 307.401C284.703 309.544 282.037 312.687 280.073 316.829C278.133 320.971 277.164 326.028 277.164 332C277.164 338.02 278.133 343.101 280.073 347.243C282.037 351.385 284.715 354.516 288.109 356.635C291.503 358.754 295.322 359.814 299.564 359.814C301.916 359.814 304.146 359.501 306.255 358.875C308.388 358.224 310.316 357.273 312.037 356.021C313.758 354.769 315.213 353.24 316.401 351.433C317.613 349.603 318.449 347.508 318.91 345.148L330.255 345.184C329.649 348.821 328.473 352.168 326.728 355.226C325.007 358.26 322.789 360.885 320.073 363.101C317.382 365.292 314.304 366.99 310.837 368.194C307.37 369.398 303.588 370 299.491 370C293.043 370 287.297 368.483 282.255 365.449C277.212 362.39 273.236 358.02 270.327 352.336C267.442 346.653 266 339.875 266 332C266 324.101 267.455 317.323 270.364 311.663C273.273 305.98 277.249 301.622 282.291 298.587C287.334 295.529 293.067 294 299.491 294C303.443 294 307.128 294.566 310.546 295.698C313.988 296.805 317.079 298.443 319.819 300.61C322.558 302.753 324.825 305.378 326.619 308.485C328.413 311.567 329.625 315.095 330.255 319.068Z" fill="url(#paint1_linear_47_42)"/>
<path d="M341.606 319.825V299.481H344.646V302.554H344.859C345.232 301.547 345.908 300.73 346.886 300.103C347.864 299.476 348.966 299.163 350.192 299.163C350.424 299.163 350.712 299.167 351.059 299.176C351.406 299.185 351.668 299.198 351.846 299.216V302.395C351.739 302.368 351.495 302.328 351.112 302.275C350.739 302.214 350.344 302.183 349.926 302.183C348.93 302.183 348.041 302.39 347.259 302.805C346.486 303.211 345.872 303.777 345.419 304.501C344.975 305.216 344.752 306.033 344.752 306.951V319.825H341.606Z" fill="#F7F7F7"/>
<path d="M358.226 327.453C357.693 327.453 357.217 327.409 356.799 327.321C356.381 327.242 356.093 327.162 355.933 327.083L356.733 324.328C357.497 324.522 358.173 324.593 358.759 324.54C359.346 324.487 359.866 324.226 360.319 323.758C360.781 323.299 361.204 322.553 361.586 321.52L362.173 319.931L354.599 299.481H358.013L363.666 315.692H363.879L369.533 299.481H372.946L364.253 322.791C363.861 323.842 363.377 324.712 362.799 325.401C362.221 326.098 361.55 326.615 360.786 326.95C360.03 327.286 359.177 327.453 358.226 327.453Z" fill="#F7F7F7"/>
<path d="M377.099 327.453V299.481H380.139V302.713H380.513C380.744 302.359 381.064 301.909 381.473 301.362C381.891 300.805 382.486 300.311 383.259 299.878C384.042 299.437 385.099 299.216 386.433 299.216C388.157 299.216 389.677 299.644 390.993 300.501C392.308 301.357 393.335 302.571 394.073 304.143C394.811 305.715 395.18 307.569 395.18 309.706C395.18 311.86 394.811 313.728 394.073 315.308C393.335 316.88 392.313 318.098 391.006 318.964C389.7 319.82 388.193 320.248 386.486 320.248C385.171 320.248 384.117 320.032 383.326 319.599C382.535 319.158 381.926 318.659 381.499 318.103C381.073 317.538 380.744 317.07 380.513 316.699H380.246V327.453H377.099ZM380.193 309.653C380.193 311.189 380.419 312.544 380.873 313.719C381.326 314.884 381.988 315.798 382.859 316.46C383.731 317.114 384.797 317.441 386.06 317.441C387.375 317.441 388.473 317.096 389.353 316.407C390.242 315.71 390.908 314.774 391.353 313.6C391.806 312.416 392.033 311.101 392.033 309.653C392.033 308.222 391.811 306.933 391.366 305.785C390.931 304.629 390.268 303.715 389.38 303.044C388.5 302.364 387.393 302.024 386.06 302.024C384.779 302.024 383.704 302.346 382.833 302.991C381.962 303.626 381.304 304.518 380.859 305.666C380.415 306.805 380.193 308.134 380.193 309.653Z" fill="#F7F7F7"/>
<path d="M408.886 299.481V302.13H398.273V299.481H408.886ZM401.366 294.607H404.513V313.997C404.513 314.88 404.642 315.542 404.9 315.984C405.166 316.416 405.504 316.708 405.913 316.858C406.331 316.999 406.771 317.07 407.233 317.07C407.58 317.07 407.864 317.052 408.086 317.017C408.309 316.973 408.486 316.937 408.62 316.911L409.26 319.719C409.046 319.798 408.749 319.878 408.366 319.957C407.984 320.045 407.5 320.089 406.913 320.089C406.024 320.089 405.153 319.9 404.3 319.52C403.455 319.14 402.753 318.562 402.193 317.785C401.642 317.008 401.366 316.028 401.366 314.845V294.607Z" fill="#F7F7F7"/>
<path d="M421.72 320.248C419.871 320.248 418.249 319.811 416.853 318.937C415.466 318.063 414.382 316.84 413.6 315.268C412.826 313.697 412.44 311.86 412.44 309.759C412.44 307.64 412.826 305.79 413.6 304.209C414.382 302.629 415.466 301.401 416.853 300.527C418.249 299.653 419.871 299.216 421.72 299.216C423.569 299.216 425.187 299.653 426.573 300.527C427.969 301.401 429.053 302.629 429.827 304.209C430.609 305.79 431 307.64 431 309.759C431 311.86 430.609 313.697 429.827 315.268C429.053 316.84 427.969 318.063 426.573 318.937C425.187 319.811 423.569 320.248 421.72 320.248ZM421.72 317.441C423.124 317.441 424.28 317.083 425.187 316.368C426.093 315.653 426.764 314.712 427.2 313.547C427.636 312.381 427.853 311.118 427.853 309.759C427.853 308.399 427.636 307.132 427.2 305.957C426.764 304.783 426.093 303.834 425.187 303.11C424.28 302.386 423.124 302.024 421.72 302.024C420.315 302.024 419.16 302.386 418.253 303.11C417.347 303.834 416.675 304.783 416.24 305.957C415.804 307.132 415.587 308.399 415.587 309.759C415.587 311.118 415.804 312.381 416.24 313.547C416.675 314.712 417.347 315.653 418.253 316.368C419.16 317.083 420.315 317.441 421.72 317.441Z" fill="#F7F7F7"/>
<path d="M349.926 367.717C348.077 367.717 346.455 367.28 345.059 366.406C343.672 365.532 342.588 364.309 341.806 362.737C341.032 361.165 340.646 359.329 340.646 357.227C340.646 355.108 341.032 353.258 341.806 351.678C342.588 350.097 343.672 348.87 345.059 347.996C346.455 347.122 348.077 346.685 349.926 346.685C351.775 346.685 353.392 347.122 354.779 347.996C356.175 348.87 357.259 350.097 358.033 351.678C358.815 353.258 359.206 355.108 359.206 357.227C359.206 359.329 358.815 361.165 358.033 362.737C357.259 364.309 356.175 365.532 354.779 366.406C353.392 367.28 351.775 367.717 349.926 367.717ZM349.926 364.909C351.33 364.909 352.486 364.552 353.392 363.836C354.299 363.121 354.97 362.181 355.406 361.015C355.841 359.85 356.059 358.587 356.059 357.227C356.059 355.868 355.841 354.601 355.406 353.426C354.97 352.252 354.299 351.303 353.392 350.579C352.486 349.855 351.33 349.493 349.926 349.493C348.521 349.493 347.366 349.855 346.459 350.579C345.552 351.303 344.881 352.252 344.446 353.426C344.01 354.601 343.792 355.868 343.792 357.227C343.792 358.587 344.01 359.85 344.446 361.015C344.881 362.181 345.552 363.121 346.459 363.836C347.366 364.552 348.521 364.909 349.926 364.909Z" fill="#F7F7F7"/>
<path d="M371.743 367.717C370.036 367.717 368.529 367.289 367.223 366.432C365.916 365.567 364.894 364.349 364.156 362.777C363.418 361.196 363.049 359.329 363.049 357.174C363.049 355.038 363.418 353.183 364.156 351.612C364.894 350.04 365.92 348.826 367.236 347.969C368.552 347.113 370.072 346.685 371.796 346.685C373.129 346.685 374.183 346.905 374.956 347.347C375.738 347.78 376.334 348.274 376.743 348.83C377.161 349.378 377.485 349.828 377.716 350.181H377.983V340.168H381.129V367.293H378.089V364.168H377.716C377.485 364.538 377.156 365.006 376.729 365.571C376.303 366.128 375.694 366.627 374.903 367.068C374.112 367.501 373.058 367.717 371.743 367.717ZM372.169 364.909C373.432 364.909 374.498 364.583 375.369 363.929C376.241 363.267 376.903 362.353 377.356 361.188C377.809 360.013 378.036 358.658 378.036 357.121C378.036 355.603 377.814 354.274 377.369 353.135C376.925 351.987 376.267 351.095 375.396 350.459C374.525 349.815 373.449 349.493 372.169 349.493C370.836 349.493 369.725 349.832 368.836 350.512C367.956 351.183 367.294 352.097 366.849 353.254C366.414 354.402 366.196 355.691 366.196 357.121C366.196 358.569 366.418 359.885 366.863 361.068C367.316 362.243 367.983 363.179 368.863 363.876C369.752 364.565 370.854 364.909 372.169 364.909Z" fill="#F7F7F7"/>
<path d="M395.916 367.717C393.943 367.717 392.241 367.284 390.81 366.419C389.387 365.545 388.29 364.326 387.516 362.764C386.752 361.192 386.37 359.364 386.37 357.28C386.37 355.197 386.752 353.36 387.516 351.771C388.29 350.172 389.365 348.927 390.743 348.036C392.13 347.135 393.747 346.685 395.596 346.685C396.663 346.685 397.716 346.861 398.756 347.214C399.796 347.568 400.743 348.142 401.596 348.936C402.45 349.722 403.13 350.764 403.636 352.062C404.143 353.36 404.396 354.958 404.396 356.857V358.181H388.61V355.479H401.196C401.196 354.331 400.965 353.307 400.503 352.406C400.05 351.506 399.401 350.795 398.556 350.274C397.721 349.753 396.734 349.493 395.596 349.493C394.343 349.493 393.258 349.802 392.343 350.42C391.436 351.029 390.738 351.824 390.25 352.804C389.761 353.784 389.516 354.835 389.516 355.956V357.757C389.516 359.294 389.783 360.596 390.316 361.664C390.858 362.724 391.61 363.532 392.57 364.088C393.53 364.636 394.645 364.909 395.916 364.909C396.743 364.909 397.49 364.794 398.156 364.565C398.832 364.326 399.414 363.973 399.903 363.505C400.392 363.029 400.77 362.437 401.036 361.731L404.076 362.578C403.756 363.602 403.219 364.503 402.463 365.28C401.707 366.048 400.774 366.649 399.663 367.081C398.552 367.505 397.303 367.717 395.916 367.717Z" fill="#F7F7F7"/>
<defs>
<filter id="filter0_d_47_42" x="188" y="80" width="315" height="538" filterUnits="userSpaceOnUse" color-interpolation-filters="sRGB">
<feFlood flood-opacity="0" result="BackgroundImageFix"/>
<feColorMatrix in="SourceAlpha" type="matrix" values="0 0 0 0 0 0 0 0 0 0 0 0 0 0 0 0 0 0 127 0" result="hardAlpha"/>
<feOffset dy="4"/>
<feGaussianBlur stdDeviation="27"/>
<feComposite in2="hardAlpha" operator="out"/>
<feColorMatrix type="matrix" values="0 0 0 0 0 0 0 0 0 0 0 0 0 0 0 0 0 0 0.45 0"/>
<feBlend mode="normal" in2="BackgroundImageFix" result="effect1_dropShadow_47_42"/>
<feBlend mode="normal" in="SourceGraphic" in2="effect1_dropShadow_47_42" result="shape"/>
</filter>
<linearGradient id="paint0_linear_47_42" x1="39" y1="652" x2="652" y2="652" gradientUnits="userSpaceOnUse">
<stop stop-color="#3FE8AB"/>
<stop offset="1" stop-color="#78CDCD"/>
</linearGradient>
<linearGradient id="paint1_linear_47_42" x1="266" y1="370" x2="431" y2="370" gradientUnits="userSpaceOnUse">
<stop stop-color="#3FE8AB"/>
<stop offset="1" stop-color="#78CDCD"/>
</linearGradient>
</defs>
</svg>
