<svg width="146" height="145" viewBox="0 0 146 145" fill="none" xmlns="http://www.w3.org/2000/svg">
<circle opacity="0.3" cx="73" cy="72.5" r="72.5" fill="url(#paint0_linear_55_68)"/>
<path d="M63.125 102.125V95.5417H53.25V88.9583H59.8333V56.0417H53.25V49.4583H63.125V42.875H69.7083V49.4583H76.2917V42.875H82.875V49.8698C85.7278 50.6378 88.0868 52.1871 89.9521 54.5176C91.8174 56.8503 92.75 59.5528 92.75 62.625C92.75 64.216 92.4757 65.7378 91.9271 67.1905C91.3785 68.6455 90.6104 69.949 89.6229 71.101C91.5431 72.2531 93.0923 73.8167 94.2708 75.7917C95.4514 77.7667 96.0417 79.9611 96.0417 82.375C96.0417 85.9958 94.7524 89.0955 92.174 91.674C89.5955 94.2524 86.4958 95.5417 82.875 95.5417V102.125H76.2917V95.5417H69.7083V102.125H63.125ZM66.4167 69.2083H79.5833C81.3938 69.2083 82.9441 68.5632 84.2345 67.2728C85.5226 65.9847 86.1667 64.4354 86.1667 62.625C86.1667 60.8146 85.5226 59.2642 84.2345 57.9739C82.9441 56.6857 81.3938 56.0417 79.5833 56.0417H66.4167V69.2083ZM66.4167 88.9583H82.875C84.6854 88.9583 86.2358 88.3143 87.5261 87.0261C88.8143 85.7358 89.4583 84.1854 89.4583 82.375C89.4583 80.5646 88.8143 79.0142 87.5261 77.7239C86.2358 76.4357 84.6854 75.7917 82.875 75.7917H66.4167V88.9583Z" fill="#42DDA7"/>
<defs>
<linearGradient id="paint0_linear_55_68" x1="0.5" y1="145" x2="145.5" y2="145" gradientUnits="userSpaceOnUse">
<stop stop-color="#3FE8AB"/>
<stop offset="1" stop-color="#78CDCD"/>
</linearGradient>
</defs>
</svg>
